<?xml version='1.0' encoding='UTF-8' standalone='no'?>
<!-- Created with Fritzing (http://www.fritzing.org/) -->
<svg xmlns:svg='http://www.w3.org/2000/svg' xmlns='http://www.w3.org/2000/svg' version='1.2' baseProfile='tiny' x='0in' y='0in' width='8.35609in' height='1.29312in' viewBox='0 0 601.638 93.1046' >
<path stroke='#8c8c8c' stroke-width='2.0952' stroke-linecap='round' stroke-linejoin='round' fill='none' d='M92.6771,3.6332L91.6295,3.6332' />
<path stroke='#8c8c8c' stroke-width='2.0952' stroke-linecap='round' stroke-linejoin='round' fill='none' d='M119.387,3.6332L120.435,3.6332' />
<g partID='854430930'><g transform='translate(90.5819,0.0008)' ><g xmlns="http://www.w3.org/2000/svg" id="breadboard">
 <rect xmlns="http://www.w3.org/2000/svg" x="0.36" y="2.5848" id="connector0pin" height="0.72" width="0.72" fill="none"/>
 <rect xmlns="http://www.w3.org/2000/svg" x="29.8202" y="2.5848" id="connector1pin" height="0.72" width="0.72" fill="none"/>
 <line xmlns="http://www.w3.org/2000/svg" stroke-linecap="round" stroke="#8C8C8C" id="connector0leg" y1="3.6324" y2="3.6324" x1="1.0476" x2="2.0952" fill="none" stroke-width="2.0952"/>
 <line xmlns="http://www.w3.org/2000/svg" stroke-linecap="round" stroke="#8C8C8C" id="connector1leg" y1="3.6324" y2="3.6324" x1="29.8526" x2="28.805" fill="none" stroke-width="2.0952"/>
 <path xmlns="http://www.w3.org/2000/svg" stroke="#8C8C8C" fill="none" d="M1.0476,3.6324l28.3666,0" stroke-width="2.0952"/>
 <path xmlns="http://www.w3.org/2000/svg" id="body" fill="#D9B477" d="M10.2478,0.49536c-0.36,-0.1656,-0.9792,-0.2952,-1.3752,-0.2952l-1.9872,0c-0.396,0,-0.72,0.324,-0.72,0.72l0,5.35608c0,0.39672,0.324,0.72,0.72,0.72l1.9872,0c0.396,0,1.0152,-0.13608,1.3752,-0.2952l0.072,-0.03528c0.36,-0.1656,0.9792,-0.2952,1.3752,-0.2952l7.1856,0c0.39672,0,1.01448,0.13608,1.37448,0.2952l0.07272,0.03528c0.36,0.1656,0.97776,0.2952,1.3752,0.2952l1.9872,0c0.39744,0,0.72,-0.32328,0.72,-0.72L24.4102,0.92016c0,-0.396,-0.32256,-0.72,-0.72,-0.72l-1.9872,0c-0.39744,0,-1.0152,0.1368,-1.3752,0.2952l-0.07272,0.036c-0.36,0.1656,-0.97776,0.2952,-1.37448,0.2952l-7.1856,0c-0.396,0,-1.0152,-0.1368,-1.3752,-0.2952L10.2478,0.49536z"/>
 <rect xmlns="http://www.w3.org/2000/svg" x="22.019" y="0.19368" id="gold_band" height="6.79536" width="0.70272" fill="#ad9f4e"/>
 <rect xmlns="http://www.w3.org/2000/svg" x="16.1726" y="0.82656" id="band_rd_multiplier" height="5.5368" width="1.8504" fill="#ad9f4e"/>
 <rect xmlns="http://www.w3.org/2000/svg" x="12.4726" y="0.82656" id="band_2_nd" height="5.5368" width="1.8504" fill="#8210d2"/>
 <path xmlns="http://www.w3.org/2000/svg" id="band_1_st" fill="#ffd500" d="M10.6286,0.63936c-0.1152,-0.036,-0.2232,-0.072,-0.3096,-0.1152l-0.072,-0.036c-0.36,-0.16488,-0.9792,-0.2952,-1.3752,-0.2952l-0.0864,0l0,6.79608l0.0864,0c0.396,0,1.0152,-0.13608,1.3752,-0.2952l0.072,-0.03528c0.0864,-0.04464,0.1944,-0.07992,0.3096,-0.1152L10.6286,0.63936z"/>
 <path xmlns="http://www.w3.org/2000/svg" id="Shadow" opacity="0.3" d="M23.711,4.0896L23.711,4.0896c0,0.37944,-0.13032,0.69912,-0.2952,0.69912l-1.9224,0c-0.38016,0,-0.97776,-0.05616,-1.33272,-0.1224L20.088,4.65048c-0.34488,-0.0648,-0.94896,-0.1224,-1.33344,-0.1224L11.808,4.52808c-0.3816,0,-0.9792,0.0576,-1.332,0.1224l-0.072,0.01512c-0.3456,0.06552,-0.9432,0.1224,-1.332,0.1224l-0.3168,0l-1.0008,0l-0.3096,0c-0.3816,0,-0.6984,0.29376,-0.6984,0.64512l0,0.24696L6.7464,5.8392l0,0.1728c0,0.36,0.3168,0.64512,0.6984,0.64512l1.62,0c0.3816,0,0.9792,-0.1224,1.332,-0.26712l0.072,-0.02808c0.3456,-0.14112,0.9504,-0.26496,1.332,-0.26496l6.94656,0c0.37944,0,0.97704,0.12384,1.33416,0.26568l0.07416,0.02808c0.34488,0.14472,0.94464,0.26712,1.33344,0.26712l2.2248,0c0.38088,0,0.69912,-0.2952,0.69912,-0.64512L24.413,5.472L24.413,4.49928L24.413,2.65536C24.1358,2.76336,23.711,3.06576,23.711,4.0896z"/>
 <rect xmlns="http://www.w3.org/2000/svg" x="22.019" y="3.48336" id="ShadowExtra" height="3.15288" opacity="0.4" width="0.70272"/>
 <path xmlns="http://www.w3.org/2000/svg" id="ReflexRight" opacity="0.25" fill="#FFFFFF" d="M19.751,1.08576c0.22968,0,0.49104,-0.1008,0.6624,-0.1728c0.2016,-0.0792,0.57672,-0.144,0.96624,-0.144l1.46088,0c0.22464,0,0.22464,0.2448,0.22464,0.3744c0,0.1296,-0.01512,0.3816,-0.22464,0.3816l-3.06,0c-0.10728,0,-0.2304,-0.1152,-0.2304,-0.22392C19.5566,1.21536,19.6286,1.08576,19.751,1.08576z"/>
 <circle xmlns="http://www.w3.org/2000/svg" id="ReflexLeft" cx="6.99984" opacity="0.35" cy="1.13616" r="0.432" fill="#FFFFFF"/>
 <rect xmlns="http://www.w3.org/2000/svg" x="22.019" y="0.42336" id="Reflex_gold" height="1.62" opacity="0.5" width="0.70272" fill="#FFFF33"/>
 <rect xmlns="http://www.w3.org/2000/svg" x="22.019" y="0.78336" id="Reflex_extra" height="0.7488" opacity="0.5" width="0.70272" fill="#FFFFFF"/>
</g>
</g></g><path stroke='#8c8c8c' stroke-width='2.0952' stroke-linecap='round' stroke-linejoin='round' fill='none' d='M56.6779,3.6324L55.6303,3.6324' />
<path stroke='#8c8c8c' stroke-width='2.0952' stroke-linecap='round' stroke-linejoin='round' fill='none' d='M83.3878,3.6324L84.4354,3.6324' />
<g partID='854421770'><g transform='translate(54.5827,0)' ><g xmlns="http://www.w3.org/2000/svg" id="breadboard">
 <rect xmlns="http://www.w3.org/2000/svg" x="0.36" y="2.5848" id="connector0pin" height="0.72" width="0.72" fill="none"/>
 <rect xmlns="http://www.w3.org/2000/svg" x="29.8202" y="2.5848" id="connector1pin" height="0.72" width="0.72" fill="none"/>
 <line xmlns="http://www.w3.org/2000/svg" stroke-linecap="round" stroke="#8C8C8C" id="connector0leg" y1="3.6324" y2="3.6324" x1="1.0476" x2="2.0952" fill="none" stroke-width="2.0952"/>
 <line xmlns="http://www.w3.org/2000/svg" stroke-linecap="round" stroke="#8C8C8C" id="connector1leg" y1="3.6324" y2="3.6324" x1="29.8526" x2="28.805" fill="none" stroke-width="2.0952"/>
 <path xmlns="http://www.w3.org/2000/svg" stroke="#8C8C8C" fill="none" d="M1.0476,3.6324l28.3666,0" stroke-width="2.0952"/>
 <path xmlns="http://www.w3.org/2000/svg" id="body" fill="#D9B477" d="M10.2478,0.49536c-0.36,-0.1656,-0.9792,-0.2952,-1.3752,-0.2952l-1.9872,0c-0.396,0,-0.72,0.324,-0.72,0.72l0,5.35608c0,0.39672,0.324,0.72,0.72,0.72l1.9872,0c0.396,0,1.0152,-0.13608,1.3752,-0.2952l0.072,-0.03528c0.36,-0.1656,0.9792,-0.2952,1.3752,-0.2952l7.1856,0c0.39672,0,1.01448,0.13608,1.37448,0.2952l0.07272,0.03528c0.36,0.1656,0.97776,0.2952,1.3752,0.2952l1.9872,0c0.39744,0,0.72,-0.32328,0.72,-0.72L24.4102,0.92016c0,-0.396,-0.32256,-0.72,-0.72,-0.72l-1.9872,0c-0.39744,0,-1.0152,0.1368,-1.3752,0.2952l-0.07272,0.036c-0.36,0.1656,-0.97776,0.2952,-1.37448,0.2952l-7.1856,0c-0.396,0,-1.0152,-0.1368,-1.3752,-0.2952L10.2478,0.49536z"/>
 <rect xmlns="http://www.w3.org/2000/svg" x="22.019" y="0.19368" id="gold_band" height="6.79536" width="0.70272" fill="#ad9f4e"/>
 <rect xmlns="http://www.w3.org/2000/svg" x="16.1726" y="0.82656" id="band_rd_multiplier" height="5.5368" width="1.8504" fill="#ad9f4e"/>
 <rect xmlns="http://www.w3.org/2000/svg" x="12.4726" y="0.82656" id="band_2_nd" height="5.5368" width="1.8504" fill="#8210d2"/>
 <path xmlns="http://www.w3.org/2000/svg" id="band_1_st" fill="#ffd500" d="M10.6286,0.63936c-0.1152,-0.036,-0.2232,-0.072,-0.3096,-0.1152l-0.072,-0.036c-0.36,-0.16488,-0.9792,-0.2952,-1.3752,-0.2952l-0.0864,0l0,6.79608l0.0864,0c0.396,0,1.0152,-0.13608,1.3752,-0.2952l0.072,-0.03528c0.0864,-0.04464,0.1944,-0.07992,0.3096,-0.1152L10.6286,0.63936z"/>
 <path xmlns="http://www.w3.org/2000/svg" id="Shadow" opacity="0.3" d="M23.711,4.0896L23.711,4.0896c0,0.37944,-0.13032,0.69912,-0.2952,0.69912l-1.9224,0c-0.38016,0,-0.97776,-0.05616,-1.33272,-0.1224L20.088,4.65048c-0.34488,-0.0648,-0.94896,-0.1224,-1.33344,-0.1224L11.808,4.52808c-0.3816,0,-0.9792,0.0576,-1.332,0.1224l-0.072,0.01512c-0.3456,0.06552,-0.9432,0.1224,-1.332,0.1224l-0.3168,0l-1.0008,0l-0.3096,0c-0.3816,0,-0.6984,0.29376,-0.6984,0.64512l0,0.24696L6.7464,5.8392l0,0.1728c0,0.36,0.3168,0.64512,0.6984,0.64512l1.62,0c0.3816,0,0.9792,-0.1224,1.332,-0.26712l0.072,-0.02808c0.3456,-0.14112,0.9504,-0.26496,1.332,-0.26496l6.94656,0c0.37944,0,0.97704,0.12384,1.33416,0.26568l0.07416,0.02808c0.34488,0.14472,0.94464,0.26712,1.33344,0.26712l2.2248,0c0.38088,0,0.69912,-0.2952,0.69912,-0.64512L24.413,5.472L24.413,4.49928L24.413,2.65536C24.1358,2.76336,23.711,3.06576,23.711,4.0896z"/>
 <rect xmlns="http://www.w3.org/2000/svg" x="22.019" y="3.48336" id="ShadowExtra" height="3.15288" opacity="0.4" width="0.70272"/>
 <path xmlns="http://www.w3.org/2000/svg" id="ReflexRight" opacity="0.25" fill="#FFFFFF" d="M19.751,1.08576c0.22968,0,0.49104,-0.1008,0.6624,-0.1728c0.2016,-0.0792,0.57672,-0.144,0.96624,-0.144l1.46088,0c0.22464,0,0.22464,0.2448,0.22464,0.3744c0,0.1296,-0.01512,0.3816,-0.22464,0.3816l-3.06,0c-0.10728,0,-0.2304,-0.1152,-0.2304,-0.22392C19.5566,1.21536,19.6286,1.08576,19.751,1.08576z"/>
 <circle xmlns="http://www.w3.org/2000/svg" id="ReflexLeft" cx="6.99984" opacity="0.35" cy="1.13616" r="0.432" fill="#FFFFFF"/>
 <rect xmlns="http://www.w3.org/2000/svg" x="22.019" y="0.42336" id="Reflex_gold" height="1.62" opacity="0.5" width="0.70272" fill="#FFFF33"/>
 <rect xmlns="http://www.w3.org/2000/svg" x="22.019" y="0.78336" id="Reflex_extra" height="0.7488" opacity="0.5" width="0.70272" fill="#FFFFFF"/>
</g>
</g></g><g partID='854433690'><g transform='translate(476.829,43.2352)' ><g transform='matrix(0,1,-1,0,0,0)'  ><g id="breadboard" xmlns="http://www.w3.org/2000/svg">
<rect height="7.2" width="28.8" fill="#404040" xmlns="http://www.w3.org/2000/svg"/>
<rect x="2.20843" y="2.20843" id="connector0pin" height="2.78312" width="2.78312" fill="none" xmlns="http://www.w3.org/2000/svg"/>
<g x="2.51834" y="2.47054" id="connector0terminal" height="2.25658" width="2.15829" fill="none" xmlns="http://www.w3.org/2000/svg"/>
<rect x="2.20843" y="2.20843" height="2.78312" width="2.78312" xmlns="http://www.w3.org/2000/svg"/>
<polygon points="1.18445,1.18445,2.20843,2.20843,4.99156,2.20843,6.01654,1.18445" fill="#2A2A29" xmlns="http://www.w3.org/2000/svg"/>
<polygon points="6.01654,1.18445,4.99156,2.20843,4.99156,4.99156,6.01654,6.01654" fill="#474747" xmlns="http://www.w3.org/2000/svg"/>
<polygon points="6.01654,6.01654,4.99156,4.99156,2.20843,4.99156,1.18445,6.01654" fill="#595959" xmlns="http://www.w3.org/2000/svg"/>
<polygon points="1.18445,6.01654,2.20843,4.99156,2.20843,2.20843,1.18445,1.18445" fill="#373737" xmlns="http://www.w3.org/2000/svg"/>
<rect x="9.40846" y="2.20843" id="connector1pin" height="2.78312" width="2.78312" fill="none" xmlns="http://www.w3.org/2000/svg"/>
<g x="9.71834" y="2.47054" id="connector1terminal" height="2.25658" width="2.15829" fill="none" xmlns="http://www.w3.org/2000/svg"/>
<rect x="9.40846" y="2.20843" height="2.78312" width="2.78312" xmlns="http://www.w3.org/2000/svg"/>
<polygon points="8.38447,1.18445,9.40846,2.20843,12.1915,2.20843,13.2165,1.18445" fill="#2A2A29" xmlns="http://www.w3.org/2000/svg"/>
<polygon points="13.2165,1.18445,12.1915,2.20843,12.1915,4.99156,13.2165,6.01654" fill="#474747" xmlns="http://www.w3.org/2000/svg"/>
<polygon points="13.2165,6.01654,12.1915,4.99156,9.40846,4.99156,8.38447,6.01654" fill="#595959" xmlns="http://www.w3.org/2000/svg"/>
<polygon points="8.38447,6.01654,9.40846,4.99156,9.40846,2.20843,8.38447,1.18445" fill="#373737" xmlns="http://www.w3.org/2000/svg"/>
<rect x="16.6085" y="2.20843" id="connector2pin" height="2.78312" width="2.78312" fill="none" xmlns="http://www.w3.org/2000/svg"/>
<g x="16.9183" y="2.47054" id="connector2terminal" height="2.25658" width="2.15829" fill="none" xmlns="http://www.w3.org/2000/svg"/>
<rect x="16.6085" y="2.20843" height="2.78312" width="2.78312" xmlns="http://www.w3.org/2000/svg"/>
<polygon points="15.5845,1.18445,16.6085,2.20843,19.3915,2.20843,20.4165,1.18445" fill="#2A2A29" xmlns="http://www.w3.org/2000/svg"/>
<polygon points="20.4165,1.18445,19.3915,2.20843,19.3915,4.99156,20.4165,6.01654" fill="#474747" xmlns="http://www.w3.org/2000/svg"/>
<polygon points="20.4165,6.01654,19.3915,4.99156,16.6085,4.99156,15.5845,6.01654" fill="#595959" xmlns="http://www.w3.org/2000/svg"/>
<polygon points="15.5845,6.01654,16.6085,4.99156,16.6085,2.20843,15.5845,1.18445" fill="#373737" xmlns="http://www.w3.org/2000/svg"/>
<rect x="23.8085" y="2.20843" id="connector3pin" height="2.78312" width="2.78312" fill="none" xmlns="http://www.w3.org/2000/svg"/>
<g x="24.1183" y="2.47054" id="connector3terminal" height="2.25658" width="2.15829" fill="none" xmlns="http://www.w3.org/2000/svg"/>
<rect x="23.8085" y="2.20843" height="2.78312" width="2.78312" xmlns="http://www.w3.org/2000/svg"/>
<polygon points="22.7845,1.18445,23.8085,2.20843,26.5915,2.20843,27.6165,1.18445" fill="#2A2A29" xmlns="http://www.w3.org/2000/svg"/>
<polygon points="27.6165,1.18445,26.5915,2.20843,26.5915,4.99156,27.6165,6.01654" fill="#474747" xmlns="http://www.w3.org/2000/svg"/>
<polygon points="27.6165,6.01654,26.5915,4.99156,23.8085,4.99156,22.7845,6.01654" fill="#595959" xmlns="http://www.w3.org/2000/svg"/>
<polygon points="22.7845,6.01654,23.8085,4.99156,23.8085,2.20843,22.7845,1.18445" fill="#373737" xmlns="http://www.w3.org/2000/svg"/>
</g>
</g></g></g><g partID='854434170'><g transform='translate(484.031,43.232)' ><g transform='matrix(0,1,-1,0,0,0)'  ><g id="breadboard" xmlns="http://www.w3.org/2000/svg">
<polygon points="1.56321,0,0,1.56321,0,5.63578,1.56321,7.2,5.63578,7.2,7.2,5.63578,7.2,1.56321,5.63578,0,1.56321,0" fill="#404040" xmlns="http://www.w3.org/2000/svg"/>
<rect x="2.2043" y="2.2043" id="connector0pin" height="2.79138" width="2.79138" fill="none" xmlns="http://www.w3.org/2000/svg"/>
<g x="2.51834" y="2.46934" id="connector0terminal" height="2.26231" width="2.1643" fill="none" xmlns="http://www.w3.org/2000/svg"/>
<rect x="2.45133" y="2.45133" height="2.29832" width="2.29832" fill="#8D8C8C" xmlns="http://www.w3.org/2000/svg"/>
<rect x="3.00941" y="3.00941" height="1.18216" width="1.18216" fill="#8C8663" xmlns="http://www.w3.org/2000/svg"/>
<polygon points="2.45133,2.45133,3.00941,3.00941,4.19058,3.00941,4.74965,2.45133" fill="#B8AF82" xmlns="http://www.w3.org/2000/svg"/>
<polygon points="4.19058,4.19058,4.19058,3.00941,4.74965,2.45133,4.74965,4.74965" fill="#80795B" xmlns="http://www.w3.org/2000/svg"/>
<polygon points="3.00941,4.19058,4.19058,4.19058,4.74965,4.74965,2.45133,4.74965" fill="#5E5B43" xmlns="http://www.w3.org/2000/svg"/>
<polygon points="2.45133,2.45133,3.00941,3.00941,3.00941,4.19058,2.45133,4.74965" fill="#9A916C" xmlns="http://www.w3.org/2000/svg"/>
<polygon points="8.76319,0,7.2,1.56321,7.2,5.63578,8.76319,7.2,12.8358,7.2,14.4,5.63578,14.4,1.56321,12.8358,0,8.76319,0" fill="#404040" xmlns="http://www.w3.org/2000/svg"/>
<rect x="9.40428" y="2.2043" id="connector1pin" height="2.79138" width="2.79138" fill="none" xmlns="http://www.w3.org/2000/svg"/>
<g x="9.71834" y="2.46934" id="connector1terminal" height="2.26231" width="2.1643" fill="none" xmlns="http://www.w3.org/2000/svg"/>
<rect x="9.65131" y="2.45133" height="2.29832" width="2.29832" fill="#8D8C8C" xmlns="http://www.w3.org/2000/svg"/>
<rect x="10.2094" y="3.00941" height="1.18216" width="1.18216" fill="#8C8663" xmlns="http://www.w3.org/2000/svg"/>
<polygon points="9.65131,2.45133,10.2094,3.00941,11.3906,3.00941,11.9496,2.45133" fill="#B8AF82" xmlns="http://www.w3.org/2000/svg"/>
<polygon points="11.3906,4.19058,11.3906,3.00941,11.9496,2.45133,11.9496,4.74965" fill="#80795B" xmlns="http://www.w3.org/2000/svg"/>
<polygon points="10.2094,4.19058,11.3906,4.19058,11.9496,4.74965,9.65131,4.74965" fill="#5E5B43" xmlns="http://www.w3.org/2000/svg"/>
<polygon points="9.65131,2.45133,10.2094,3.00941,10.2094,4.19058,9.65131,4.74965" fill="#9A916C" xmlns="http://www.w3.org/2000/svg"/>
<polygon points="15.9632,0,14.4,1.56321,14.4,5.63578,15.9632,7.2,20.0358,7.2,21.6,5.63578,21.6,1.56321,20.0358,0,15.9632,0" fill="#404040" xmlns="http://www.w3.org/2000/svg"/>
<rect x="16.6043" y="2.2043" id="connector2pin" height="2.79138" width="2.79138" fill="none" xmlns="http://www.w3.org/2000/svg"/>
<g x="16.9183" y="2.46934" id="connector2terminal" height="2.26231" width="2.1643" fill="none" xmlns="http://www.w3.org/2000/svg"/>
<rect x="16.8513" y="2.45133" height="2.29832" width="2.29832" fill="#8D8C8C" xmlns="http://www.w3.org/2000/svg"/>
<rect x="17.4094" y="3.00941" height="1.18216" width="1.18216" fill="#8C8663" xmlns="http://www.w3.org/2000/svg"/>
<polygon points="16.8513,2.45133,17.4094,3.00941,18.5906,3.00941,19.1496,2.45133" fill="#B8AF82" xmlns="http://www.w3.org/2000/svg"/>
<polygon points="18.5906,4.19058,18.5906,3.00941,19.1496,2.45133,19.1496,4.74965" fill="#80795B" xmlns="http://www.w3.org/2000/svg"/>
<polygon points="17.4094,4.19058,18.5906,4.19058,19.1496,4.74965,16.8513,4.74965" fill="#5E5B43" xmlns="http://www.w3.org/2000/svg"/>
<polygon points="16.8513,2.45133,17.4094,3.00941,17.4094,4.19058,16.8513,4.74965" fill="#9A916C" xmlns="http://www.w3.org/2000/svg"/>
<polygon points="23.1632,0,21.6,1.56321,21.6,5.63578,23.1632,7.2,27.2358,7.2,28.8,5.63578,28.8,1.56321,27.2358,0,23.1632,0" fill="#404040" xmlns="http://www.w3.org/2000/svg"/>
<rect x="23.8043" y="2.2043" id="connector3pin" height="2.79138" width="2.79138" fill="none" xmlns="http://www.w3.org/2000/svg"/>
<g x="24.1183" y="2.46934" id="connector3terminal" height="2.26231" width="2.1643" fill="none" xmlns="http://www.w3.org/2000/svg"/>
<rect x="24.0513" y="2.45133" height="2.29832" width="2.29832" fill="#8D8C8C" xmlns="http://www.w3.org/2000/svg"/>
<rect x="24.6094" y="3.00941" height="1.18216" width="1.18216" fill="#8C8663" xmlns="http://www.w3.org/2000/svg"/>
<polygon points="24.0513,2.45133,24.6094,3.00941,25.7906,3.00941,26.3496,2.45133" fill="#B8AF82" xmlns="http://www.w3.org/2000/svg"/>
<polygon points="25.7906,4.19058,25.7906,3.00941,26.3496,2.45133,26.3496,4.74965" fill="#80795B" xmlns="http://www.w3.org/2000/svg"/>
<polygon points="24.6094,4.19058,25.7906,4.19058,26.3496,4.74965,24.0513,4.74965" fill="#5E5B43" xmlns="http://www.w3.org/2000/svg"/>
<polygon points="24.0513,2.45133,24.6094,3.00941,24.6094,4.19058,24.0513,4.74965" fill="#9A916C" xmlns="http://www.w3.org/2000/svg"/>
</g>
</g></g></g><g partID='854434300'><g transform='translate(498.429,36.0352)' ><g transform='matrix(0,1,-1,0,0,0)'  ><g id="breadboard" xmlns="http://www.w3.org/2000/svg">
<rect height="7.2" width="28.8" fill="#404040" xmlns="http://www.w3.org/2000/svg"/>
<rect x="2.20843" y="2.20843" id="connector0pin" height="2.78312" width="2.78312" fill="none" xmlns="http://www.w3.org/2000/svg"/>
<g x="2.51834" y="2.47054" id="connector0terminal" height="2.25658" width="2.15829" fill="none" xmlns="http://www.w3.org/2000/svg"/>
<rect x="2.20843" y="2.20843" height="2.78312" width="2.78312" xmlns="http://www.w3.org/2000/svg"/>
<polygon points="1.18445,1.18445,2.20843,2.20843,4.99156,2.20843,6.01654,1.18445" fill="#2A2A29" xmlns="http://www.w3.org/2000/svg"/>
<polygon points="6.01654,1.18445,4.99156,2.20843,4.99156,4.99156,6.01654,6.01654" fill="#474747" xmlns="http://www.w3.org/2000/svg"/>
<polygon points="6.01654,6.01654,4.99156,4.99156,2.20843,4.99156,1.18445,6.01654" fill="#595959" xmlns="http://www.w3.org/2000/svg"/>
<polygon points="1.18445,6.01654,2.20843,4.99156,2.20843,2.20843,1.18445,1.18445" fill="#373737" xmlns="http://www.w3.org/2000/svg"/>
<rect x="9.40846" y="2.20843" id="connector1pin" height="2.78312" width="2.78312" fill="none" xmlns="http://www.w3.org/2000/svg"/>
<g x="9.71834" y="2.47054" id="connector1terminal" height="2.25658" width="2.15829" fill="none" xmlns="http://www.w3.org/2000/svg"/>
<rect x="9.40846" y="2.20843" height="2.78312" width="2.78312" xmlns="http://www.w3.org/2000/svg"/>
<polygon points="8.38447,1.18445,9.40846,2.20843,12.1915,2.20843,13.2165,1.18445" fill="#2A2A29" xmlns="http://www.w3.org/2000/svg"/>
<polygon points="13.2165,1.18445,12.1915,2.20843,12.1915,4.99156,13.2165,6.01654" fill="#474747" xmlns="http://www.w3.org/2000/svg"/>
<polygon points="13.2165,6.01654,12.1915,4.99156,9.40846,4.99156,8.38447,6.01654" fill="#595959" xmlns="http://www.w3.org/2000/svg"/>
<polygon points="8.38447,6.01654,9.40846,4.99156,9.40846,2.20843,8.38447,1.18445" fill="#373737" xmlns="http://www.w3.org/2000/svg"/>
<rect x="16.6085" y="2.20843" id="connector2pin" height="2.78312" width="2.78312" fill="none" xmlns="http://www.w3.org/2000/svg"/>
<g x="16.9183" y="2.47054" id="connector2terminal" height="2.25658" width="2.15829" fill="none" xmlns="http://www.w3.org/2000/svg"/>
<rect x="16.6085" y="2.20843" height="2.78312" width="2.78312" xmlns="http://www.w3.org/2000/svg"/>
<polygon points="15.5845,1.18445,16.6085,2.20843,19.3915,2.20843,20.4165,1.18445" fill="#2A2A29" xmlns="http://www.w3.org/2000/svg"/>
<polygon points="20.4165,1.18445,19.3915,2.20843,19.3915,4.99156,20.4165,6.01654" fill="#474747" xmlns="http://www.w3.org/2000/svg"/>
<polygon points="20.4165,6.01654,19.3915,4.99156,16.6085,4.99156,15.5845,6.01654" fill="#595959" xmlns="http://www.w3.org/2000/svg"/>
<polygon points="15.5845,6.01654,16.6085,4.99156,16.6085,2.20843,15.5845,1.18445" fill="#373737" xmlns="http://www.w3.org/2000/svg"/>
<rect x="23.8085" y="2.20843" id="connector3pin" height="2.78312" width="2.78312" fill="none" xmlns="http://www.w3.org/2000/svg"/>
<g x="24.1183" y="2.47054" id="connector3terminal" height="2.25658" width="2.15829" fill="none" xmlns="http://www.w3.org/2000/svg"/>
<rect x="23.8085" y="2.20843" height="2.78312" width="2.78312" xmlns="http://www.w3.org/2000/svg"/>
<polygon points="22.7845,1.18445,23.8085,2.20843,26.5915,2.20843,27.6165,1.18445" fill="#2A2A29" xmlns="http://www.w3.org/2000/svg"/>
<polygon points="27.6165,1.18445,26.5915,2.20843,26.5915,4.99156,27.6165,6.01654" fill="#474747" xmlns="http://www.w3.org/2000/svg"/>
<polygon points="27.6165,6.01654,26.5915,4.99156,23.8085,4.99156,22.7845,6.01654" fill="#595959" xmlns="http://www.w3.org/2000/svg"/>
<polygon points="22.7845,6.01654,23.8085,4.99156,23.8085,2.20843,22.7845,1.18445" fill="#373737" xmlns="http://www.w3.org/2000/svg"/>
</g>
</g></g></g><g partID='854434270'><g transform='translate(491.229,36.0352)' ><g transform='matrix(0,1,-1,0,0,0)'  ><g id="breadboard" xmlns="http://www.w3.org/2000/svg">
<rect height="7.2" width="28.8" fill="#404040" xmlns="http://www.w3.org/2000/svg"/>
<rect x="2.20843" y="2.20843" id="connector0pin" height="2.78312" width="2.78312" fill="none" xmlns="http://www.w3.org/2000/svg"/>
<g x="2.51834" y="2.47054" id="connector0terminal" height="2.25658" width="2.15829" fill="none" xmlns="http://www.w3.org/2000/svg"/>
<rect x="2.20843" y="2.20843" height="2.78312" width="2.78312" xmlns="http://www.w3.org/2000/svg"/>
<polygon points="1.18445,1.18445,2.20843,2.20843,4.99156,2.20843,6.01654,1.18445" fill="#2A2A29" xmlns="http://www.w3.org/2000/svg"/>
<polygon points="6.01654,1.18445,4.99156,2.20843,4.99156,4.99156,6.01654,6.01654" fill="#474747" xmlns="http://www.w3.org/2000/svg"/>
<polygon points="6.01654,6.01654,4.99156,4.99156,2.20843,4.99156,1.18445,6.01654" fill="#595959" xmlns="http://www.w3.org/2000/svg"/>
<polygon points="1.18445,6.01654,2.20843,4.99156,2.20843,2.20843,1.18445,1.18445" fill="#373737" xmlns="http://www.w3.org/2000/svg"/>
<rect x="9.40846" y="2.20843" id="connector1pin" height="2.78312" width="2.78312" fill="none" xmlns="http://www.w3.org/2000/svg"/>
<g x="9.71834" y="2.47054" id="connector1terminal" height="2.25658" width="2.15829" fill="none" xmlns="http://www.w3.org/2000/svg"/>
<rect x="9.40846" y="2.20843" height="2.78312" width="2.78312" xmlns="http://www.w3.org/2000/svg"/>
<polygon points="8.38447,1.18445,9.40846,2.20843,12.1915,2.20843,13.2165,1.18445" fill="#2A2A29" xmlns="http://www.w3.org/2000/svg"/>
<polygon points="13.2165,1.18445,12.1915,2.20843,12.1915,4.99156,13.2165,6.01654" fill="#474747" xmlns="http://www.w3.org/2000/svg"/>
<polygon points="13.2165,6.01654,12.1915,4.99156,9.40846,4.99156,8.38447,6.01654" fill="#595959" xmlns="http://www.w3.org/2000/svg"/>
<polygon points="8.38447,6.01654,9.40846,4.99156,9.40846,2.20843,8.38447,1.18445" fill="#373737" xmlns="http://www.w3.org/2000/svg"/>
<rect x="16.6085" y="2.20843" id="connector2pin" height="2.78312" width="2.78312" fill="none" xmlns="http://www.w3.org/2000/svg"/>
<g x="16.9183" y="2.47054" id="connector2terminal" height="2.25658" width="2.15829" fill="none" xmlns="http://www.w3.org/2000/svg"/>
<rect x="16.6085" y="2.20843" height="2.78312" width="2.78312" xmlns="http://www.w3.org/2000/svg"/>
<polygon points="15.5845,1.18445,16.6085,2.20843,19.3915,2.20843,20.4165,1.18445" fill="#2A2A29" xmlns="http://www.w3.org/2000/svg"/>
<polygon points="20.4165,1.18445,19.3915,2.20843,19.3915,4.99156,20.4165,6.01654" fill="#474747" xmlns="http://www.w3.org/2000/svg"/>
<polygon points="20.4165,6.01654,19.3915,4.99156,16.6085,4.99156,15.5845,6.01654" fill="#595959" xmlns="http://www.w3.org/2000/svg"/>
<polygon points="15.5845,6.01654,16.6085,4.99156,16.6085,2.20843,15.5845,1.18445" fill="#373737" xmlns="http://www.w3.org/2000/svg"/>
<rect x="23.8085" y="2.20843" id="connector3pin" height="2.78312" width="2.78312" fill="none" xmlns="http://www.w3.org/2000/svg"/>
<g x="24.1183" y="2.47054" id="connector3terminal" height="2.25658" width="2.15829" fill="none" xmlns="http://www.w3.org/2000/svg"/>
<rect x="23.8085" y="2.20843" height="2.78312" width="2.78312" xmlns="http://www.w3.org/2000/svg"/>
<polygon points="22.7845,1.18445,23.8085,2.20843,26.5915,2.20843,27.6165,1.18445" fill="#2A2A29" xmlns="http://www.w3.org/2000/svg"/>
<polygon points="27.6165,1.18445,26.5915,2.20843,26.5915,4.99156,27.6165,6.01654" fill="#474747" xmlns="http://www.w3.org/2000/svg"/>
<polygon points="27.6165,6.01654,26.5915,4.99156,23.8085,4.99156,22.7845,6.01654" fill="#595959" xmlns="http://www.w3.org/2000/svg"/>
<polygon points="22.7845,6.01654,23.8085,4.99156,23.8085,2.20843,22.7845,1.18445" fill="#373737" xmlns="http://www.w3.org/2000/svg"/>
</g>
</g></g></g><g partID='854434810'><g transform='translate(491.232,64.834)' ><g id="breadboard" xmlns="http://www.w3.org/2000/svg">
<rect height="7.2" width="7.2" fill="#404040" xmlns="http://www.w3.org/2000/svg"/>
<rect x="2.20843" y="2.20843" id="connector0pin" height="2.78312" width="2.78312" fill="none" xmlns="http://www.w3.org/2000/svg"/>
<g x="2.51834" y="2.47054" id="connector0terminal" height="2.25658" width="2.15829" fill="none" xmlns="http://www.w3.org/2000/svg"/>
<rect x="2.20843" y="2.20843" height="2.78312" width="2.78312" xmlns="http://www.w3.org/2000/svg"/>
<polygon points="1.18445,1.18445,2.20843,2.20843,4.99156,2.20843,6.01654,1.18445" fill="#2A2A29" xmlns="http://www.w3.org/2000/svg"/>
<polygon points="6.01654,1.18445,4.99156,2.20843,4.99156,4.99156,6.01654,6.01654" fill="#474747" xmlns="http://www.w3.org/2000/svg"/>
<polygon points="6.01654,6.01654,4.99156,4.99156,2.20843,4.99156,1.18445,6.01654" fill="#595959" xmlns="http://www.w3.org/2000/svg"/>
<polygon points="1.18445,6.01654,2.20843,4.99156,2.20843,2.20843,1.18445,1.18445" fill="#373737" xmlns="http://www.w3.org/2000/svg"/>
</g>
</g></g><g partID='854434950'><g transform='translate(476.829,36.032)' ><g id="breadboard" xmlns="http://www.w3.org/2000/svg">
<polygon points="1.56321,0,0,1.56321,0,5.63578,1.56321,7.2,5.63578,7.2,7.2,5.63578,7.2,1.56321,5.63578,0,1.56321,0" fill="#404040" xmlns="http://www.w3.org/2000/svg"/>
<rect x="2.2043" y="2.2043" id="connector0pin" height="2.79138" width="2.79138" fill="none" xmlns="http://www.w3.org/2000/svg"/>
<g x="2.51834" y="2.46934" id="connector0terminal" height="2.26231" width="2.1643" fill="none" xmlns="http://www.w3.org/2000/svg"/>
<rect x="2.45133" y="2.45133" height="2.29832" width="2.29832" fill="#8D8C8C" xmlns="http://www.w3.org/2000/svg"/>
<rect x="3.00941" y="3.00941" height="1.18216" width="1.18216" fill="#8C8663" xmlns="http://www.w3.org/2000/svg"/>
<polygon points="2.45133,2.45133,3.00941,3.00941,4.19058,3.00941,4.74965,2.45133" fill="#B8AF82" xmlns="http://www.w3.org/2000/svg"/>
<polygon points="4.19058,4.19058,4.19058,3.00941,4.74965,2.45133,4.74965,4.74965" fill="#80795B" xmlns="http://www.w3.org/2000/svg"/>
<polygon points="3.00941,4.19058,4.19058,4.19058,4.74965,4.74965,2.45133,4.74965" fill="#5E5B43" xmlns="http://www.w3.org/2000/svg"/>
<polygon points="2.45133,2.45133,3.00941,3.00941,3.00941,4.19058,2.45133,4.74965" fill="#9A916C" xmlns="http://www.w3.org/2000/svg"/>
</g>
</g></g><g partID='854435210'><g transform='translate(469.632,36.0336)' ><g id="breadboard" xmlns="http://www.w3.org/2000/svg">
<rect height="7.2" width="7.2" fill="#404040" xmlns="http://www.w3.org/2000/svg"/>
<rect x="2.20843" y="2.20843" id="connector0pin" height="2.78312" width="2.78312" fill="none" xmlns="http://www.w3.org/2000/svg"/>
<g x="2.51834" y="2.47054" id="connector0terminal" height="2.25658" width="2.15829" fill="none" xmlns="http://www.w3.org/2000/svg"/>
<rect x="2.20843" y="2.20843" height="2.78312" width="2.78312" xmlns="http://www.w3.org/2000/svg"/>
<polygon points="1.18445,1.18445,2.20843,2.20843,4.99156,2.20843,6.01654,1.18445" fill="#2A2A29" xmlns="http://www.w3.org/2000/svg"/>
<polygon points="6.01654,1.18445,4.99156,2.20843,4.99156,4.99156,6.01654,6.01654" fill="#474747" xmlns="http://www.w3.org/2000/svg"/>
<polygon points="6.01654,6.01654,4.99156,4.99156,2.20843,4.99156,1.18445,6.01654" fill="#595959" xmlns="http://www.w3.org/2000/svg"/>
<polygon points="1.18445,6.01654,2.20843,4.99156,2.20843,2.20843,1.18445,1.18445" fill="#373737" xmlns="http://www.w3.org/2000/svg"/>
</g>
</g></g><g partID='854435480'><g transform='translate(484.032,64.834)' ><g id="breadboard" xmlns="http://www.w3.org/2000/svg">
<rect height="7.2" width="7.2" fill="#404040" xmlns="http://www.w3.org/2000/svg"/>
<rect x="2.20843" y="2.20843" id="connector0pin" height="2.78312" width="2.78312" fill="none" xmlns="http://www.w3.org/2000/svg"/>
<g x="2.51834" y="2.47054" id="connector0terminal" height="2.25658" width="2.15829" fill="none" xmlns="http://www.w3.org/2000/svg"/>
<rect x="2.20843" y="2.20843" height="2.78312" width="2.78312" xmlns="http://www.w3.org/2000/svg"/>
<polygon points="1.18445,1.18445,2.20843,2.20843,4.99156,2.20843,6.01654,1.18445" fill="#2A2A29" xmlns="http://www.w3.org/2000/svg"/>
<polygon points="6.01654,1.18445,4.99156,2.20843,4.99156,4.99156,6.01654,6.01654" fill="#474747" xmlns="http://www.w3.org/2000/svg"/>
<polygon points="6.01654,6.01654,4.99156,4.99156,2.20843,4.99156,1.18445,6.01654" fill="#595959" xmlns="http://www.w3.org/2000/svg"/>
<polygon points="1.18445,6.01654,2.20843,4.99156,2.20843,2.20843,1.18445,1.18445" fill="#373737" xmlns="http://www.w3.org/2000/svg"/>
</g>
</g></g><g partID='854418700'><g transform='translate(601.638,32.636)' ><g transform='matrix(-4.44089e-16,1,-1,-4.44089e-16,0,0)'  ><g  id="breadboard">
 <path  id="PCB" fill="#201D18" d="M9.266,11.491l2.39,-4.139l0.964,1.67c0,0,2.275,3.955,6.19,1.693c3.916,-2.261,1.713,-6.257,1.713,-6.257l-0.964,-1.67l4.813,-0.002l8.458,-0.014l4.779,0.001l-0.964,1.669c0,0,-2.287,3.947,1.627,6.208c3.916,2.261,6.274,-1.646,6.274,-1.646l0.966,-1.669l2.407,4.167l4.24,7.318l2.389,4.14l-1.928,0c0,0,-4.562,-0.008,-4.562,4.514c0,4.521,4.562,4.611,4.562,4.611l1.928,0l-2.404,4.169l-4.219,7.332l-2.389,4.14l-0.965,-1.67c0,0,-2.275,-3.955,-6.189,-1.694c-3.916,2.261,-1.713,6.257,-1.713,6.257l0.963,1.67l-4.812,0.002l-8.458,0.015l-4.78,-0.001l0.964,-1.669c0,0,2.287,-3.947,-1.627,-6.208c-3.916,-2.262,-6.275,1.646,-6.275,1.646l-0.965,1.669l-2.407,-4.167l-4.24,-7.318l-2.39,-4.14l1.928,0c0,0,4.562,0.008,4.562,-4.514s-4.562,-4.611,-4.562,-4.611L2.644,22.993l2.405,-4.169L9.266,11.491z"/>
 <g >
  <polygon  points="36.514,9.879,32.944,9.879,32.944,19.679,34.729,19.679,34.729,15.817,36.514,15.817" fill="#C0B098"/>
  <polygon  points="21.425,9.879,24.995,9.879,24.995,19.679,23.21,19.679,23.21,15.817,21.425,15.817" fill="#C0B098"/>
  <polygon  points="27.237,9.879,30.807,9.879,30.807,15.8,29.893,15.8,29.911,19.679,28.192,19.679,28.192,15.8,27.237,15.817" fill="#C0B098"/>
 </g>
 <g >
  <polygon  points="21.425,45.097,24.995,45.097,24.995,35.298,23.21,35.298,23.21,39.16,21.425,39.16" fill="#C0B098"/>
  <polygon  points="36.514,45.097,32.944,45.097,32.944,35.298,34.729,35.298,34.729,39.16,36.514,39.16" fill="#C0B098"/>
  <polygon  points="30.702,45.097,27.131,45.097,27.131,39.177,28.046,39.177,28.027,35.298,29.747,35.298,29.747,39.177,30.702,39.16" fill="#C0B098"/>
 </g>
 <path  id="path10215" fill="#9FC5C5" d="M19.358,32.042l0.039,-9.193c0,0,0.983,-1.364,2.27,-2.694c1.154,-1.192,2.731,-2.116,2.731,-2.116L33.013,18c0,0,2.019,1.059,3.271,2.349c1.232,1.268,2.154,2.961,2.154,2.961l0.037,8.579c0,0,-0.891,1.539,-1.883,2.576c-1.104,1.151,-3.155,2.501,-3.155,2.501l-9.27,0.114c0,0,-1.153,-0.616,-2.616,-2.115C20.143,33.522,19.358,32.042,19.358,32.042z"/>
 <path  stroke="#FFFFFF" id="path10211" fill="#B0D0D1" d="M37.375,27.521c0,4.683,-3.797,8.479,-8.479,8.479c-4.681,0,-8.478,-3.797,-8.478,-8.479c0,-4.684,3.795,-8.479,8.478,-8.479C33.581,19.044,37.375,22.839,37.375,27.521z" stroke-width="1.0552"/>
 <linearGradient  gradientUnits="userSpaceOnUse" id="path10485_1_" y1="1128.14" y2="1128.14" gradientTransform="matrix(0.0602 0.3652 0.8744 -0.103 -1045.524 -392.8369)" x1="1449.96" x2="1473.21">
  <stop  style="stop-color:#FFFFFF;stop-opacity:0.6891" offset="0"/>
  <stop  style="stop-color:#FFFFFF;stop-opacity:0" offset="0.5864"/>
  <stop  style="stop-color:#E2FEFF;stop-opacity:0" offset="1"/>
 </linearGradient>
 <path  id="path10485" fill="url(#path10485_1_)" d="M29.667,28.987c-3.361,0.365,-6.426,-1.234,-6.846,-3.576c-0.417,-2.342,1.968,-4.535,5.332,-4.899c3.363,-0.366,6.43,1.234,6.848,3.576C35.417,26.427,33.032,28.622,29.667,28.987z"/>
 <g transform="matrix(-0.5, -0.866, 0.866, -0.5, 56.3406, 66.0727)">
  <rect  x="42.363" y="14.486" height="4.575" width="9.759" fill="#FBBE0E"/>
 </g>
 <g transform="matrix(-0.5, -0.866, 0.866, -0.5, -18.2463, 66.0777)">
  <rect  x="5.073" y="36.019" height="4.574" width="9.755" fill="#FBBE0E"/>
 </g>
 <g transform="matrix(-0.5, 0.866, -0.866, -0.5, 29.4525, 16.5434)">
  <rect  x="5.072" y="14.487" height="4.575" width="9.757" fill="#FBBE0E"/>
 </g>
 <g transform="matrix(-0.4999, 0.8661, -0.8661, -0.4999, 104.035, 16.5317)">
  <rect  x="42.366" y="36.015" height="4.577" width="9.757" fill="#FBBE0E"/>
 </g>
 <rect  x="23.718" y="3.721" height="4.574" width="9.757" fill="#FBBE0E"/>
 <rect  x="23.719" y="46.784" height="4.574" width="9.756" fill="#FBBE0E"/>
 <g transform="matrix(1, 0, 0, 1, 39.6001, 22.1433)">
  <text  font-size="4" font-family="'OCRAStd'" fill="#FFFFFF">R+</text>
 </g>
 <g transform="matrix(1, 0, 0, 1, 39.6001, 36.1794)">
  <text  font-size="4" font-family="'OCRAStd'" fill="#FFFFFF">R-</text>
 </g>
 <g transform="matrix(1, 0, 0, 1, 12.4746, 22.1423)">
  <text  font-size="4" font-family="'OCRAStd'" fill="#FFFFFF">B+</text>
 </g>
 <g transform="matrix(1, 0, 0, 1, 12.4746, 36.1794)">
  <text  font-size="4" font-family="'OCRAStd'" fill="#FFFFFF">B-</text>
 </g>
 <polygon  points="9.493,32.938,14.371,41.386,10.41,43.674,7.899,39.326,5.532,35.225" id="connector6" fill="none"/>
 <polygon  points="23.719,46.784,33.475,46.784,33.475,51.358,29.346,51.358,23.719,51.358" id="connector5" fill="none"/>
 <polygon  points="42.824,41.385,47.701,32.934,51.665,35.222,49.427,39.097,46.787,43.672" id="connector4" fill="none"/>
 <polygon  points="46.784,11.404,49.888,16.78,51.664,19.855,47.702,22.142,42.823,13.692" id="connector3" fill="none"/>
 <polygon  points="23.718,3.721,29.221,3.721,33.475,3.721,33.475,8.296,23.718,8.296" id="connector2" fill="none"/>
 <polygon  points="5.53,19.855,7.984,15.604,10.409,11.405,14.371,13.693,9.492,22.142" id="connector1" fill="none"/>
</g>
</g></g></g><g partID='854421760'><g transform='translate(132.859,41.5744)' ><g transform='matrix(-1,0,0,-1,0,0)'  ><g  id="breadboard">
 <circle  stroke="#9A916C" id="connector3pin" cx="26.829" cy="16.342" r="2.772" fill="none" stroke-width="0.254"/>
 <circle  stroke="#9A916C" id="connector1pin" cx="5.229" cy="16.342" r="2.772" fill="none" stroke-width="0.254"/>
 <circle  stroke="#9A916C" id="connector2pin" cx="106.029" cy="16.342" r="2.772" fill="none" stroke-width="0.254"/>
 <circle  stroke="#9A916C" id="connector0pin" cx="127.629" cy="16.342" r="2.772" fill="none" stroke-width="0.254"/>
 <g >
  <g >
   <g >
    <path  fill="#898989" d="M16.809,18.857L16.809,12.47l9.979,0c1.764,0,3.192,1.43,3.192,3.192c0,1.762,-1.432,3.191,-3.192,3.191L16.809,18.857L16.809,18.857z"/>
    <g >
     <path  fill="#DBDBDB" d="M1.85,24.309c-0.864,0,-1.851,-3.87,-1.851,-8.644c0,-4.774,0.984,-8.646,1.852,-8.646l1.808,0l0,17.287L1.85,24.309L1.85,24.309z"/>
     <path  fill="#898989" d="M1.85,24.309c-0.864,0,-1.282,-3.87,-1.282,-8.645c0,-4.773,0.418,-8.646,1.282,-8.646l2.229,0l0,17.287L1.85,24.309L1.85,24.309z"/>
     <g >
      <g >
       <path  fill="#7C7C7C" d="M26.563,12.266L26.563,7.021L3.657,7.021l0,17.287l22.905,0l0,-5.246l-1.235,0l0,-6.797L26.563,12.266L26.563,12.266zM15.253,17.651L5.804,17.651l0,-3.976l9.449,0c0.859,0,1.557,0.891,1.557,1.987C16.809,16.762,16.115,17.651,15.253,17.651z"/>
      </g>
     </g>
     <g >
      <rect  x="3.45" y="7.031" height="17.276" width="0.729" fill="#3D3D3D"/>
      <rect  x="2.723" y="7.031" height="17.276" width="0.728" fill="#666666"/>
      <rect  x="1.994" y="7.031" height="17.276" width="0.729" fill="#777777"/>
     </g>
     <path  fill="#898989" d="M4.981,15.665c0,2.314,-0.684,4.191,-1.521,4.191c-0.676,0,-0.855,-1.877,-0.855,-4.191c0,-2.315,0.183,-4.192,0.855,-4.192C4.298,11.472,4.981,13.349,4.981,15.665z"/>
     <path  stroke="#A5A5A5" stroke-linecap="round" enable-background="new    " opacity="0.5" fill="none" d="M3.458,19.857c-0.475,0,-0.855,-1.877,-0.855,-4.191c0,-2.315,0.384,-4.192,0.855,-4.192" stroke-miterlimit="10" stroke-width="0.2171"/>
     <path  stroke="#606060" fill="none" d="M3.457,19.857c0.842,0,1.522,-1.877,1.522,-4.191c0,-2.315,-0.683,-4.192,-1.522,-4.192" stroke-miterlimit="10" stroke-width="0.3256"/>
     <g >
      <path  stroke="#A5A5A5" stroke-linecap="round" fill="none" d="M4.164,18.392c0.277,-0.663,0.459,-1.633,0.459,-2.728c0,-1.097,-0.182,-2.063,-0.459,-2.729" stroke-miterlimit="10" stroke-width="0.2809"/>
     </g>
    </g>
    <rect  x="25.046" y="12.266" height="6.797" enable-background="new    " opacity="0.2" width="0.279" fill="#FFFFFF"/>
   </g>
   <g >
    <path  fill="#898989" d="M116.047,18.857L116.047,12.47l-9.979,0c-1.766,0,-3.193,1.43,-3.193,3.192c0,1.762,1.432,3.191,3.193,3.191L116.047,18.857L116.047,18.857z"/>
    <g >
     <path  fill="#DBDBDB" d="M131.006,24.309c0.865,0,1.854,-3.87,1.854,-8.645c0,-4.773,-0.986,-8.646,-1.854,-8.646l-1.805,0l0,17.287L131.006,24.309L131.006,24.309z"/>
     <path  fill="#898989" d="M131.006,24.309c0.865,0,1.283,-3.87,1.283,-8.645c0,-4.773,-0.418,-8.646,-1.283,-8.646l-2.227,0l0,17.287L131.006,24.309L131.006,24.309z"/>
     <g >
      <g >
       <path  fill="#7C7C7C" d="M106.293,7.021l0,5.244l1.238,0l0,6.797l-1.238,0l0,5.246l22.908,0L129.201,7.021L106.293,7.021zM127.052,17.651l-9.449,0c-0.857,0,-1.559,-0.892,-1.559,-1.985c0,-1.1,0.697,-1.987,1.559,-1.987l9.449,0L127.052,17.651z"/>
      </g>
     </g>
     <g >
      <rect  x="128.677" y="7.031" height="17.276" width="0.73" fill="#3D3D3D"/>
      <rect  x="129.408" y="7.031" height="17.276" width="0.727" fill="#666666"/>
      <rect  x="130.133" y="7.031" height="17.276" width="0.729" fill="#777777"/>
     </g>
     <path  fill="#898989" d="M127.875,15.665c0,2.314,0.684,4.191,1.52,4.191c0.678,0,0.857,-1.877,0.857,-4.191c0,-2.315,-0.184,-4.192,-0.857,-4.192C128.556,11.472,127.875,13.349,127.875,15.665z"/>
     <path  stroke="#A5A5A5" stroke-linecap="round" enable-background="new    " opacity="0.5" fill="none" d="M129.396,19.857c0.477,0,0.857,-1.877,0.857,-4.191c0,-2.315,-0.385,-4.192,-0.857,-4.192" stroke-miterlimit="10" stroke-width="0.2171"/>
     <path  stroke="#606060" fill="none" d="M129.398,19.857c-0.842,0,-1.521,-1.877,-1.521,-4.191c0,-2.315,0.684,-4.192,1.521,-4.192" stroke-miterlimit="10" stroke-width="0.3256"/>
     <g >
      <path  stroke="#A5A5A5" stroke-linecap="round" fill="none" d="M128.693,18.392c-0.277,-0.663,-0.457,-1.633,-0.457,-2.728c0,-1.097,0.18,-2.063,0.459,-2.729" stroke-miterlimit="10" stroke-width="0.2809"/>
     </g>
    </g>
    <rect  x="107.533" y="12.266" height="6.797" enable-background="new    " opacity="0.2" width="0.277" fill="#FFFFFF"/>
   </g>
  </g>
  <g >
   <path  fill="#353535" d="M127.051,27.933c0,1.752,-1.666,3.185,-3.701,3.185L7.087,31.118c-2.036,0,-3.7,-1.433,-3.7,-3.185L3.387,4.59c0,-1.75,1.664,-3.186,3.7,-3.186l116.262,0c2.037,0,3.701,1.436,3.701,3.186L127.05,27.933L127.051,27.933z"/>
   <path  fill="#CE925D" d="M91.453,1.456l32.145,0c2.035,0,3.701,1.432,3.701,3.185l0,23.348c0,1.75,-1.666,3.185,-3.701,3.185L91.453,31.174L91.453,1.456z"/>
   <path  enable-background="new    " opacity="0.35" d="M7.369,29.898c-1.533,0,-3.488,-1.223,-3.488,-2.667L3.881,20.55c0,1.447,1.955,3.717,3.488,3.717l115.416,0c1.535,0,3.488,-2.27,3.488,-3.717l0,6.683c0,1.448,-1.953,2.666,-3.488,2.666L7.369,29.898L7.369,29.898z"/>
   <path  fill="#B2B2B2" d="M126.947,16.063c0,6.653,-0.293,12.047,-0.658,12.047s-0.365,-24.094,0,-24.094C126.654,4.018,126.947,9.411,126.947,16.063"/>
   <path  fill="#606060" d="M126.701,20.17c-0.242,0,-0.242,-8.9,0,-8.9l-0.006,0.001c0,0.549,0.262,0.993,0.262,0.993c0.637,0,1.156,0.443,1.156,0.994l0,4.923c0,0.547,-0.521,0.993,-1.156,0.993c0,0,-0.262,0.444,-0.262,0.993L126.701,20.17L126.701,20.17z"/>
  </g>
  <g >
   <g transform="matrix(1, 0, 0, 1, 31.4773, 19.0081)">
    <text  font-size="10" font-family="'OCRA'" fill="#FFFFFF">AAA Battery</text>
   </g>
  </g>
  <g >
   <g  opacity="0.35">
    <g >
     <path  fill="#FFFFFF" d="M108.918,4.68c-1.559,0,-2.834,-0.469,-2.834,-1.041c0,-0.573,-1.273,-1.041,-2.836,-1.041L29.755,2.598c-1.559,0,-2.834,0.468,-2.834,1.041c0,0.572,-1.274,1.041,-2.835,1.041L9.432,4.68c-1.561,0,-2.834,1.274,-2.834,2.834l0,1.861c0,1.56,1.273,2.834,2.834,2.834l111.191,0c1.563,0,2.836,-1.274,2.836,-2.834L123.459,7.514c0,-1.56,-1.273,-2.834,-2.836,-2.834L108.918,4.68z"/>
     <path  fill="#FFFFFF" d="M108.918,4.68c-1.559,0,-2.834,-0.469,-2.834,-1.041c0,-0.573,-1.273,-1.041,-2.836,-1.041L29.755,2.598c-1.559,0,-2.834,0.468,-2.834,1.041c0,0.572,-1.274,1.041,-2.835,1.041L9.432,4.68c-1.561,0,-2.834,1.274,-2.834,2.834l0,1.861c0,1.56,1.273,2.834,2.834,2.834l111.191,0c1.563,0,2.836,-1.274,2.836,-2.834L123.459,7.514c0,-1.56,-1.273,-2.834,-2.836,-2.834L108.918,4.68z"/>
    </g>
   </g>
  </g>
  <g >
   <g >
    <g >
     <path  fill="#DBDBDB" d="M124.926,1.51c0,-0.479,-0.615,-1.51,-3.287,-1.51l-10.816,0c-2.666,0,-3.289,1.029,-3.289,1.51l0,1.616l17.396,0L124.926,1.51L124.926,1.51z"/>
    </g>
    <g >
     <path  fill="#898989" d="M124.926,1.51c0,-0.332,-0.615,-1.315,-3.287,-1.237l-10.816,0c-2.666,-0.078,-3.289,0.979,-3.289,1.237l0,1.517l17.396,0L124.926,1.51L124.926,1.51z"/>
    </g>
    <g >
     <rect  x="107.533" y="2.801" height="0.667" width="17.395" fill="#3D3D3D"/>
     <rect  x="107.533" y="2.133" height="0.668" width="17.395" fill="#666666"/>
     <rect  x="107.533" y="1.467" height="0.666" width="17.395" fill="#777777"/>
    </g>
   </g>
   <g >
    <g >
     <path  fill="#DBDBDB" d="M124.926,31.173c0,0.479,-0.615,1.511,-3.287,1.511l-10.816,0c-2.666,0,-3.289,-1.032,-3.289,-1.511l0,-1.614l17.396,0L124.926,31.173L124.926,31.173z"/>
    </g>
    <g >
     <path  fill="#898989" d="M124.926,31.173c0,0.332,-0.615,1.314,-3.287,1.238l-10.816,0c-2.666,0.076,-3.289,-0.979,-3.289,-1.238l0,-1.515l17.396,0L124.926,31.173L124.926,31.173z"/>
    </g>
    <g >
     <rect  x="107.533" y="29.216" height="0.667" width="17.395" fill="#3D3D3D"/>
     <rect  x="107.533" y="29.883" height="0.666" width="17.395" fill="#666666"/>
     <rect  x="107.533" y="30.549" height="0.668" width="17.395" fill="#777777"/>
    </g>
   </g>
   <g >
    <g >
     <g >
      <path  fill="#DBDBDB" d="M7.93,1.51C7.93,1.03,8.548,0,11.221,0l10.813,0c2.668,0,3.291,1.029,3.291,1.51l0,1.616L7.93,3.126L7.93,1.51z"/>
     </g>
     <g >
      <path  fill="#898989" d="M7.93,1.51c0,-0.332,0.617,-1.315,3.291,-1.237l10.813,0c2.668,-0.078,3.291,0.979,3.291,1.237l0,1.517L7.93,3.027L7.93,1.51z"/>
     </g>
     <g >
      <rect  x="7.93" y="2.801" height="0.667" width="17.396" fill="#3D3D3D"/>
      <rect  x="7.93" y="2.133" height="0.668" width="17.396" fill="#666666"/>
      <rect  x="7.93" y="1.467" height="0.666" width="17.396" fill="#777777"/>
     </g>
    </g>
   </g>
   <g >
    <g >
     <path  fill="#DBDBDB" d="M7.93,31.173c0,0.479,0.617,1.511,3.291,1.511l10.813,0c2.668,0,3.291,-1.032,3.291,-1.511l0,-1.614L7.93,29.559L7.93,31.173z"/>
    </g>
    <g >
     <path  fill="#898989" d="M7.93,31.173c0,0.332,0.617,1.314,3.291,1.238l10.813,0c2.668,0.076,3.291,-0.979,3.291,-1.238l0,-1.515L7.93,29.658L7.93,31.173z"/>
    </g>
    <g >
     <rect  x="7.93" y="29.216" height="0.667" width="17.396" fill="#3D3D3D"/>
     <rect  x="7.93" y="29.883" height="0.666" width="17.396" fill="#666666"/>
     <rect  x="7.93" y="30.549" height="0.668" width="17.396" fill="#777777"/>
    </g>
   </g>
  </g>
 </g>
 <g transform="matrix(1, 0, 0, 1, 11.1306, 18.8381)">
  <text  font-size="9.36" font-family="'OCRA'" fill="#F8F8F8">-</text>
 </g>
 <g transform="matrix(1, 0, 0, 1, 118.697, 18.8381)">
  <text  font-size="9.36" font-family="'OCRA'" fill="#F8F8F8">+</text>
 </g>
</g>
</g></g></g><g partID='854421740'><g transform='translate(262.459,41.5744)' ><g transform='matrix(-1,0,0,-1,0,0)'  ><g  id="breadboard">
 <circle  stroke="#9A916C" id="connector3pin" cx="26.829" cy="16.342" r="2.772" fill="none" stroke-width="0.254"/>
 <circle  stroke="#9A916C" id="connector1pin" cx="5.229" cy="16.342" r="2.772" fill="none" stroke-width="0.254"/>
 <circle  stroke="#9A916C" id="connector2pin" cx="106.029" cy="16.342" r="2.772" fill="none" stroke-width="0.254"/>
 <circle  stroke="#9A916C" id="connector0pin" cx="127.629" cy="16.342" r="2.772" fill="none" stroke-width="0.254"/>
 <g >
  <g >
   <g >
    <path  fill="#898989" d="M16.809,18.857L16.809,12.47l9.979,0c1.764,0,3.192,1.43,3.192,3.192c0,1.762,-1.432,3.191,-3.192,3.191L16.809,18.857L16.809,18.857z"/>
    <g >
     <path  fill="#DBDBDB" d="M1.85,24.309c-0.864,0,-1.851,-3.87,-1.851,-8.644c0,-4.774,0.984,-8.646,1.852,-8.646l1.808,0l0,17.287L1.85,24.309L1.85,24.309z"/>
     <path  fill="#898989" d="M1.85,24.309c-0.864,0,-1.282,-3.87,-1.282,-8.645c0,-4.773,0.418,-8.646,1.282,-8.646l2.229,0l0,17.287L1.85,24.309L1.85,24.309z"/>
     <g >
      <g >
       <path  fill="#7C7C7C" d="M26.563,12.266L26.563,7.021L3.657,7.021l0,17.287l22.905,0l0,-5.246l-1.235,0l0,-6.797L26.563,12.266L26.563,12.266zM15.253,17.651L5.804,17.651l0,-3.976l9.449,0c0.859,0,1.557,0.891,1.557,1.987C16.809,16.762,16.115,17.651,15.253,17.651z"/>
      </g>
     </g>
     <g >
      <rect  x="3.45" y="7.031" height="17.276" width="0.729" fill="#3D3D3D"/>
      <rect  x="2.723" y="7.031" height="17.276" width="0.728" fill="#666666"/>
      <rect  x="1.994" y="7.031" height="17.276" width="0.729" fill="#777777"/>
     </g>
     <path  fill="#898989" d="M4.981,15.665c0,2.314,-0.684,4.191,-1.521,4.191c-0.676,0,-0.855,-1.877,-0.855,-4.191c0,-2.315,0.183,-4.192,0.855,-4.192C4.298,11.472,4.981,13.349,4.981,15.665z"/>
     <path  stroke="#A5A5A5" stroke-linecap="round" enable-background="new    " opacity="0.5" fill="none" d="M3.458,19.857c-0.475,0,-0.855,-1.877,-0.855,-4.191c0,-2.315,0.384,-4.192,0.855,-4.192" stroke-miterlimit="10" stroke-width="0.2171"/>
     <path  stroke="#606060" fill="none" d="M3.457,19.857c0.842,0,1.522,-1.877,1.522,-4.191c0,-2.315,-0.683,-4.192,-1.522,-4.192" stroke-miterlimit="10" stroke-width="0.3256"/>
     <g >
      <path  stroke="#A5A5A5" stroke-linecap="round" fill="none" d="M4.164,18.392c0.277,-0.663,0.459,-1.633,0.459,-2.728c0,-1.097,-0.182,-2.063,-0.459,-2.729" stroke-miterlimit="10" stroke-width="0.2809"/>
     </g>
    </g>
    <rect  x="25.046" y="12.266" height="6.797" enable-background="new    " opacity="0.2" width="0.279" fill="#FFFFFF"/>
   </g>
   <g >
    <path  fill="#898989" d="M116.047,18.857L116.047,12.47l-9.979,0c-1.766,0,-3.193,1.43,-3.193,3.192c0,1.762,1.432,3.191,3.193,3.191L116.047,18.857L116.047,18.857z"/>
    <g >
     <path  fill="#DBDBDB" d="M131.006,24.309c0.865,0,1.854,-3.87,1.854,-8.645c0,-4.773,-0.986,-8.646,-1.854,-8.646l-1.805,0l0,17.287L131.006,24.309L131.006,24.309z"/>
     <path  fill="#898989" d="M131.006,24.309c0.865,0,1.283,-3.87,1.283,-8.645c0,-4.773,-0.418,-8.646,-1.283,-8.646l-2.227,0l0,17.287L131.006,24.309L131.006,24.309z"/>
     <g >
      <g >
       <path  fill="#7C7C7C" d="M106.293,7.021l0,5.244l1.238,0l0,6.797l-1.238,0l0,5.246l22.908,0L129.201,7.021L106.293,7.021zM127.052,17.651l-9.449,0c-0.857,0,-1.559,-0.892,-1.559,-1.985c0,-1.1,0.697,-1.987,1.559,-1.987l9.449,0L127.052,17.651z"/>
      </g>
     </g>
     <g >
      <rect  x="128.677" y="7.031" height="17.276" width="0.73" fill="#3D3D3D"/>
      <rect  x="129.408" y="7.031" height="17.276" width="0.727" fill="#666666"/>
      <rect  x="130.133" y="7.031" height="17.276" width="0.729" fill="#777777"/>
     </g>
     <path  fill="#898989" d="M127.875,15.665c0,2.314,0.684,4.191,1.52,4.191c0.678,0,0.857,-1.877,0.857,-4.191c0,-2.315,-0.184,-4.192,-0.857,-4.192C128.556,11.472,127.875,13.349,127.875,15.665z"/>
     <path  stroke="#A5A5A5" stroke-linecap="round" enable-background="new    " opacity="0.5" fill="none" d="M129.396,19.857c0.477,0,0.857,-1.877,0.857,-4.191c0,-2.315,-0.385,-4.192,-0.857,-4.192" stroke-miterlimit="10" stroke-width="0.2171"/>
     <path  stroke="#606060" fill="none" d="M129.398,19.857c-0.842,0,-1.521,-1.877,-1.521,-4.191c0,-2.315,0.684,-4.192,1.521,-4.192" stroke-miterlimit="10" stroke-width="0.3256"/>
     <g >
      <path  stroke="#A5A5A5" stroke-linecap="round" fill="none" d="M128.693,18.392c-0.277,-0.663,-0.457,-1.633,-0.457,-2.728c0,-1.097,0.18,-2.063,0.459,-2.729" stroke-miterlimit="10" stroke-width="0.2809"/>
     </g>
    </g>
    <rect  x="107.533" y="12.266" height="6.797" enable-background="new    " opacity="0.2" width="0.277" fill="#FFFFFF"/>
   </g>
  </g>
  <g >
   <path  fill="#353535" d="M127.051,27.933c0,1.752,-1.666,3.185,-3.701,3.185L7.087,31.118c-2.036,0,-3.7,-1.433,-3.7,-3.185L3.387,4.59c0,-1.75,1.664,-3.186,3.7,-3.186l116.262,0c2.037,0,3.701,1.436,3.701,3.186L127.05,27.933L127.051,27.933z"/>
   <path  fill="#CE925D" d="M91.453,1.456l32.145,0c2.035,0,3.701,1.432,3.701,3.185l0,23.348c0,1.75,-1.666,3.185,-3.701,3.185L91.453,31.174L91.453,1.456z"/>
   <path  enable-background="new    " opacity="0.35" d="M7.369,29.898c-1.533,0,-3.488,-1.223,-3.488,-2.667L3.881,20.55c0,1.447,1.955,3.717,3.488,3.717l115.416,0c1.535,0,3.488,-2.27,3.488,-3.717l0,6.683c0,1.448,-1.953,2.666,-3.488,2.666L7.369,29.898L7.369,29.898z"/>
   <path  fill="#B2B2B2" d="M126.947,16.063c0,6.653,-0.293,12.047,-0.658,12.047s-0.365,-24.094,0,-24.094C126.654,4.018,126.947,9.411,126.947,16.063"/>
   <path  fill="#606060" d="M126.701,20.17c-0.242,0,-0.242,-8.9,0,-8.9l-0.006,0.001c0,0.549,0.262,0.993,0.262,0.993c0.637,0,1.156,0.443,1.156,0.994l0,4.923c0,0.547,-0.521,0.993,-1.156,0.993c0,0,-0.262,0.444,-0.262,0.993L126.701,20.17L126.701,20.17z"/>
  </g>
  <g >
   <g transform="matrix(1, 0, 0, 1, 31.4773, 19.0081)">
    <text  font-size="10" font-family="'OCRA'" fill="#FFFFFF">AAA Battery</text>
   </g>
  </g>
  <g >
   <g  opacity="0.35">
    <g >
     <path  fill="#FFFFFF" d="M108.918,4.68c-1.559,0,-2.834,-0.469,-2.834,-1.041c0,-0.573,-1.273,-1.041,-2.836,-1.041L29.755,2.598c-1.559,0,-2.834,0.468,-2.834,1.041c0,0.572,-1.274,1.041,-2.835,1.041L9.432,4.68c-1.561,0,-2.834,1.274,-2.834,2.834l0,1.861c0,1.56,1.273,2.834,2.834,2.834l111.191,0c1.563,0,2.836,-1.274,2.836,-2.834L123.459,7.514c0,-1.56,-1.273,-2.834,-2.836,-2.834L108.918,4.68z"/>
     <path  fill="#FFFFFF" d="M108.918,4.68c-1.559,0,-2.834,-0.469,-2.834,-1.041c0,-0.573,-1.273,-1.041,-2.836,-1.041L29.755,2.598c-1.559,0,-2.834,0.468,-2.834,1.041c0,0.572,-1.274,1.041,-2.835,1.041L9.432,4.68c-1.561,0,-2.834,1.274,-2.834,2.834l0,1.861c0,1.56,1.273,2.834,2.834,2.834l111.191,0c1.563,0,2.836,-1.274,2.836,-2.834L123.459,7.514c0,-1.56,-1.273,-2.834,-2.836,-2.834L108.918,4.68z"/>
    </g>
   </g>
  </g>
  <g >
   <g >
    <g >
     <path  fill="#DBDBDB" d="M124.926,1.51c0,-0.479,-0.615,-1.51,-3.287,-1.51l-10.816,0c-2.666,0,-3.289,1.029,-3.289,1.51l0,1.616l17.396,0L124.926,1.51L124.926,1.51z"/>
    </g>
    <g >
     <path  fill="#898989" d="M124.926,1.51c0,-0.332,-0.615,-1.315,-3.287,-1.237l-10.816,0c-2.666,-0.078,-3.289,0.979,-3.289,1.237l0,1.517l17.396,0L124.926,1.51L124.926,1.51z"/>
    </g>
    <g >
     <rect  x="107.533" y="2.801" height="0.667" width="17.395" fill="#3D3D3D"/>
     <rect  x="107.533" y="2.133" height="0.668" width="17.395" fill="#666666"/>
     <rect  x="107.533" y="1.467" height="0.666" width="17.395" fill="#777777"/>
    </g>
   </g>
   <g >
    <g >
     <path  fill="#DBDBDB" d="M124.926,31.173c0,0.479,-0.615,1.511,-3.287,1.511l-10.816,0c-2.666,0,-3.289,-1.032,-3.289,-1.511l0,-1.614l17.396,0L124.926,31.173L124.926,31.173z"/>
    </g>
    <g >
     <path  fill="#898989" d="M124.926,31.173c0,0.332,-0.615,1.314,-3.287,1.238l-10.816,0c-2.666,0.076,-3.289,-0.979,-3.289,-1.238l0,-1.515l17.396,0L124.926,31.173L124.926,31.173z"/>
    </g>
    <g >
     <rect  x="107.533" y="29.216" height="0.667" width="17.395" fill="#3D3D3D"/>
     <rect  x="107.533" y="29.883" height="0.666" width="17.395" fill="#666666"/>
     <rect  x="107.533" y="30.549" height="0.668" width="17.395" fill="#777777"/>
    </g>
   </g>
   <g >
    <g >
     <g >
      <path  fill="#DBDBDB" d="M7.93,1.51C7.93,1.03,8.548,0,11.221,0l10.813,0c2.668,0,3.291,1.029,3.291,1.51l0,1.616L7.93,3.126L7.93,1.51z"/>
     </g>
     <g >
      <path  fill="#898989" d="M7.93,1.51c0,-0.332,0.617,-1.315,3.291,-1.237l10.813,0c2.668,-0.078,3.291,0.979,3.291,1.237l0,1.517L7.93,3.027L7.93,1.51z"/>
     </g>
     <g >
      <rect  x="7.93" y="2.801" height="0.667" width="17.396" fill="#3D3D3D"/>
      <rect  x="7.93" y="2.133" height="0.668" width="17.396" fill="#666666"/>
      <rect  x="7.93" y="1.467" height="0.666" width="17.396" fill="#777777"/>
     </g>
    </g>
   </g>
   <g >
    <g >
     <path  fill="#DBDBDB" d="M7.93,31.173c0,0.479,0.617,1.511,3.291,1.511l10.813,0c2.668,0,3.291,-1.032,3.291,-1.511l0,-1.614L7.93,29.559L7.93,31.173z"/>
    </g>
    <g >
     <path  fill="#898989" d="M7.93,31.173c0,0.332,0.617,1.314,3.291,1.238l10.813,0c2.668,0.076,3.291,-0.979,3.291,-1.238l0,-1.515L7.93,29.658L7.93,31.173z"/>
    </g>
    <g >
     <rect  x="7.93" y="29.216" height="0.667" width="17.396" fill="#3D3D3D"/>
     <rect  x="7.93" y="29.883" height="0.666" width="17.396" fill="#666666"/>
     <rect  x="7.93" y="30.549" height="0.668" width="17.396" fill="#777777"/>
    </g>
   </g>
  </g>
 </g>
 <g transform="matrix(1, 0, 0, 1, 11.1306, 18.8381)">
  <text  font-size="9.36" font-family="'OCRA'" fill="#F8F8F8">-</text>
 </g>
 <g transform="matrix(1, 0, 0, 1, 118.697, 18.8381)">
  <text  font-size="9.36" font-family="'OCRA'" fill="#F8F8F8">+</text>
 </g>
</g>
</g></g></g><g partID='854421720'><g transform='translate(129.601,44.8912)' ><g  id="breadboard">
 <circle  stroke="#9A916C" id="connector3pin" cx="26.829" cy="16.342" r="2.772" fill="none" stroke-width="0.254"/>
 <circle  stroke="#9A916C" id="connector1pin" cx="5.229" cy="16.342" r="2.772" fill="none" stroke-width="0.254"/>
 <circle  stroke="#9A916C" id="connector2pin" cx="106.029" cy="16.342" r="2.772" fill="none" stroke-width="0.254"/>
 <circle  stroke="#9A916C" id="connector0pin" cx="127.629" cy="16.342" r="2.772" fill="none" stroke-width="0.254"/>
 <g >
  <g >
   <g >
    <path  fill="#898989" d="M16.809,18.857L16.809,12.47l9.979,0c1.764,0,3.192,1.43,3.192,3.192c0,1.762,-1.432,3.191,-3.192,3.191L16.809,18.857L16.809,18.857z"/>
    <g >
     <path  fill="#DBDBDB" d="M1.85,24.309c-0.864,0,-1.851,-3.87,-1.851,-8.644c0,-4.774,0.984,-8.646,1.852,-8.646l1.808,0l0,17.287L1.85,24.309L1.85,24.309z"/>
     <path  fill="#898989" d="M1.85,24.309c-0.864,0,-1.282,-3.87,-1.282,-8.645c0,-4.773,0.418,-8.646,1.282,-8.646l2.229,0l0,17.287L1.85,24.309L1.85,24.309z"/>
     <g >
      <g >
       <path  fill="#7C7C7C" d="M26.563,12.266L26.563,7.021L3.657,7.021l0,17.287l22.905,0l0,-5.246l-1.235,0l0,-6.797L26.563,12.266L26.563,12.266zM15.253,17.651L5.804,17.651l0,-3.976l9.449,0c0.859,0,1.557,0.891,1.557,1.987C16.809,16.762,16.115,17.651,15.253,17.651z"/>
      </g>
     </g>
     <g >
      <rect  x="3.45" y="7.031" height="17.276" width="0.729" fill="#3D3D3D"/>
      <rect  x="2.723" y="7.031" height="17.276" width="0.728" fill="#666666"/>
      <rect  x="1.994" y="7.031" height="17.276" width="0.729" fill="#777777"/>
     </g>
     <path  fill="#898989" d="M4.981,15.665c0,2.314,-0.684,4.191,-1.521,4.191c-0.676,0,-0.855,-1.877,-0.855,-4.191c0,-2.315,0.183,-4.192,0.855,-4.192C4.298,11.472,4.981,13.349,4.981,15.665z"/>
     <path  stroke="#A5A5A5" stroke-linecap="round" enable-background="new    " opacity="0.5" fill="none" d="M3.458,19.857c-0.475,0,-0.855,-1.877,-0.855,-4.191c0,-2.315,0.384,-4.192,0.855,-4.192" stroke-miterlimit="10" stroke-width="0.2171"/>
     <path  stroke="#606060" fill="none" d="M3.457,19.857c0.842,0,1.522,-1.877,1.522,-4.191c0,-2.315,-0.683,-4.192,-1.522,-4.192" stroke-miterlimit="10" stroke-width="0.3256"/>
     <g >
      <path  stroke="#A5A5A5" stroke-linecap="round" fill="none" d="M4.164,18.392c0.277,-0.663,0.459,-1.633,0.459,-2.728c0,-1.097,-0.182,-2.063,-0.459,-2.729" stroke-miterlimit="10" stroke-width="0.2809"/>
     </g>
    </g>
    <rect  x="25.046" y="12.266" height="6.797" enable-background="new    " opacity="0.2" width="0.279" fill="#FFFFFF"/>
   </g>
   <g >
    <path  fill="#898989" d="M116.047,18.857L116.047,12.47l-9.979,0c-1.766,0,-3.193,1.43,-3.193,3.192c0,1.762,1.432,3.191,3.193,3.191L116.047,18.857L116.047,18.857z"/>
    <g >
     <path  fill="#DBDBDB" d="M131.006,24.309c0.865,0,1.854,-3.87,1.854,-8.645c0,-4.773,-0.986,-8.646,-1.854,-8.646l-1.805,0l0,17.287L131.006,24.309L131.006,24.309z"/>
     <path  fill="#898989" d="M131.006,24.309c0.865,0,1.283,-3.87,1.283,-8.645c0,-4.773,-0.418,-8.646,-1.283,-8.646l-2.227,0l0,17.287L131.006,24.309L131.006,24.309z"/>
     <g >
      <g >
       <path  fill="#7C7C7C" d="M106.293,7.021l0,5.244l1.238,0l0,6.797l-1.238,0l0,5.246l22.908,0L129.201,7.021L106.293,7.021zM127.052,17.651l-9.449,0c-0.857,0,-1.559,-0.892,-1.559,-1.985c0,-1.1,0.697,-1.987,1.559,-1.987l9.449,0L127.052,17.651z"/>
      </g>
     </g>
     <g >
      <rect  x="128.677" y="7.031" height="17.276" width="0.73" fill="#3D3D3D"/>
      <rect  x="129.408" y="7.031" height="17.276" width="0.727" fill="#666666"/>
      <rect  x="130.133" y="7.031" height="17.276" width="0.729" fill="#777777"/>
     </g>
     <path  fill="#898989" d="M127.875,15.665c0,2.314,0.684,4.191,1.52,4.191c0.678,0,0.857,-1.877,0.857,-4.191c0,-2.315,-0.184,-4.192,-0.857,-4.192C128.556,11.472,127.875,13.349,127.875,15.665z"/>
     <path  stroke="#A5A5A5" stroke-linecap="round" enable-background="new    " opacity="0.5" fill="none" d="M129.396,19.857c0.477,0,0.857,-1.877,0.857,-4.191c0,-2.315,-0.385,-4.192,-0.857,-4.192" stroke-miterlimit="10" stroke-width="0.2171"/>
     <path  stroke="#606060" fill="none" d="M129.398,19.857c-0.842,0,-1.521,-1.877,-1.521,-4.191c0,-2.315,0.684,-4.192,1.521,-4.192" stroke-miterlimit="10" stroke-width="0.3256"/>
     <g >
      <path  stroke="#A5A5A5" stroke-linecap="round" fill="none" d="M128.693,18.392c-0.277,-0.663,-0.457,-1.633,-0.457,-2.728c0,-1.097,0.18,-2.063,0.459,-2.729" stroke-miterlimit="10" stroke-width="0.2809"/>
     </g>
    </g>
    <rect  x="107.533" y="12.266" height="6.797" enable-background="new    " opacity="0.2" width="0.277" fill="#FFFFFF"/>
   </g>
  </g>
  <g >
   <path  fill="#353535" d="M127.051,27.933c0,1.752,-1.666,3.185,-3.701,3.185L7.087,31.118c-2.036,0,-3.7,-1.433,-3.7,-3.185L3.387,4.59c0,-1.75,1.664,-3.186,3.7,-3.186l116.262,0c2.037,0,3.701,1.436,3.701,3.186L127.05,27.933L127.051,27.933z"/>
   <path  fill="#CE925D" d="M91.453,1.456l32.145,0c2.035,0,3.701,1.432,3.701,3.185l0,23.348c0,1.75,-1.666,3.185,-3.701,3.185L91.453,31.174L91.453,1.456z"/>
   <path  enable-background="new    " opacity="0.35" d="M7.369,29.898c-1.533,0,-3.488,-1.223,-3.488,-2.667L3.881,20.55c0,1.447,1.955,3.717,3.488,3.717l115.416,0c1.535,0,3.488,-2.27,3.488,-3.717l0,6.683c0,1.448,-1.953,2.666,-3.488,2.666L7.369,29.898L7.369,29.898z"/>
   <path  fill="#B2B2B2" d="M126.947,16.063c0,6.653,-0.293,12.047,-0.658,12.047s-0.365,-24.094,0,-24.094C126.654,4.018,126.947,9.411,126.947,16.063"/>
   <path  fill="#606060" d="M126.701,20.17c-0.242,0,-0.242,-8.9,0,-8.9l-0.006,0.001c0,0.549,0.262,0.993,0.262,0.993c0.637,0,1.156,0.443,1.156,0.994l0,4.923c0,0.547,-0.521,0.993,-1.156,0.993c0,0,-0.262,0.444,-0.262,0.993L126.701,20.17L126.701,20.17z"/>
  </g>
  <g >
   <g transform="matrix(1, 0, 0, 1, 31.4773, 19.0081)">
    <text  font-size="10" font-family="'OCRA'" fill="#FFFFFF">AAA Battery</text>
   </g>
  </g>
  <g >
   <g  opacity="0.35">
    <g >
     <path  fill="#FFFFFF" d="M108.918,4.68c-1.559,0,-2.834,-0.469,-2.834,-1.041c0,-0.573,-1.273,-1.041,-2.836,-1.041L29.755,2.598c-1.559,0,-2.834,0.468,-2.834,1.041c0,0.572,-1.274,1.041,-2.835,1.041L9.432,4.68c-1.561,0,-2.834,1.274,-2.834,2.834l0,1.861c0,1.56,1.273,2.834,2.834,2.834l111.191,0c1.563,0,2.836,-1.274,2.836,-2.834L123.459,7.514c0,-1.56,-1.273,-2.834,-2.836,-2.834L108.918,4.68z"/>
     <path  fill="#FFFFFF" d="M108.918,4.68c-1.559,0,-2.834,-0.469,-2.834,-1.041c0,-0.573,-1.273,-1.041,-2.836,-1.041L29.755,2.598c-1.559,0,-2.834,0.468,-2.834,1.041c0,0.572,-1.274,1.041,-2.835,1.041L9.432,4.68c-1.561,0,-2.834,1.274,-2.834,2.834l0,1.861c0,1.56,1.273,2.834,2.834,2.834l111.191,0c1.563,0,2.836,-1.274,2.836,-2.834L123.459,7.514c0,-1.56,-1.273,-2.834,-2.836,-2.834L108.918,4.68z"/>
    </g>
   </g>
  </g>
  <g >
   <g >
    <g >
     <path  fill="#DBDBDB" d="M124.926,1.51c0,-0.479,-0.615,-1.51,-3.287,-1.51l-10.816,0c-2.666,0,-3.289,1.029,-3.289,1.51l0,1.616l17.396,0L124.926,1.51L124.926,1.51z"/>
    </g>
    <g >
     <path  fill="#898989" d="M124.926,1.51c0,-0.332,-0.615,-1.315,-3.287,-1.237l-10.816,0c-2.666,-0.078,-3.289,0.979,-3.289,1.237l0,1.517l17.396,0L124.926,1.51L124.926,1.51z"/>
    </g>
    <g >
     <rect  x="107.533" y="2.801" height="0.667" width="17.395" fill="#3D3D3D"/>
     <rect  x="107.533" y="2.133" height="0.668" width="17.395" fill="#666666"/>
     <rect  x="107.533" y="1.467" height="0.666" width="17.395" fill="#777777"/>
    </g>
   </g>
   <g >
    <g >
     <path  fill="#DBDBDB" d="M124.926,31.173c0,0.479,-0.615,1.511,-3.287,1.511l-10.816,0c-2.666,0,-3.289,-1.032,-3.289,-1.511l0,-1.614l17.396,0L124.926,31.173L124.926,31.173z"/>
    </g>
    <g >
     <path  fill="#898989" d="M124.926,31.173c0,0.332,-0.615,1.314,-3.287,1.238l-10.816,0c-2.666,0.076,-3.289,-0.979,-3.289,-1.238l0,-1.515l17.396,0L124.926,31.173L124.926,31.173z"/>
    </g>
    <g >
     <rect  x="107.533" y="29.216" height="0.667" width="17.395" fill="#3D3D3D"/>
     <rect  x="107.533" y="29.883" height="0.666" width="17.395" fill="#666666"/>
     <rect  x="107.533" y="30.549" height="0.668" width="17.395" fill="#777777"/>
    </g>
   </g>
   <g >
    <g >
     <g >
      <path  fill="#DBDBDB" d="M7.93,1.51C7.93,1.03,8.548,0,11.221,0l10.813,0c2.668,0,3.291,1.029,3.291,1.51l0,1.616L7.93,3.126L7.93,1.51z"/>
     </g>
     <g >
      <path  fill="#898989" d="M7.93,1.51c0,-0.332,0.617,-1.315,3.291,-1.237l10.813,0c2.668,-0.078,3.291,0.979,3.291,1.237l0,1.517L7.93,3.027L7.93,1.51z"/>
     </g>
     <g >
      <rect  x="7.93" y="2.801" height="0.667" width="17.396" fill="#3D3D3D"/>
      <rect  x="7.93" y="2.133" height="0.668" width="17.396" fill="#666666"/>
      <rect  x="7.93" y="1.467" height="0.666" width="17.396" fill="#777777"/>
     </g>
    </g>
   </g>
   <g >
    <g >
     <path  fill="#DBDBDB" d="M7.93,31.173c0,0.479,0.617,1.511,3.291,1.511l10.813,0c2.668,0,3.291,-1.032,3.291,-1.511l0,-1.614L7.93,29.559L7.93,31.173z"/>
    </g>
    <g >
     <path  fill="#898989" d="M7.93,31.173c0,0.332,0.617,1.314,3.291,1.238l10.813,0c2.668,0.076,3.291,-0.979,3.291,-1.238l0,-1.515L7.93,29.658L7.93,31.173z"/>
    </g>
    <g >
     <rect  x="7.93" y="29.216" height="0.667" width="17.396" fill="#3D3D3D"/>
     <rect  x="7.93" y="29.883" height="0.666" width="17.396" fill="#666666"/>
     <rect  x="7.93" y="30.549" height="0.668" width="17.396" fill="#777777"/>
    </g>
   </g>
  </g>
 </g>
 <g transform="matrix(1, 0, 0, 1, 11.1306, 18.8381)">
  <text  font-size="9.36" font-family="'OCRA'" fill="#F8F8F8">-</text>
 </g>
 <g transform="matrix(1, 0, 0, 1, 118.697, 18.8381)">
  <text  font-size="9.36" font-family="'OCRA'" fill="#F8F8F8">+</text>
 </g>
</g>
</g></g><g partID='854421700'><g transform='translate(0.00112,44.8912)' ><g  id="breadboard">
 <circle  stroke="#9A916C" id="connector3pin" cx="26.829" cy="16.342" r="2.772" fill="none" stroke-width="0.254"/>
 <circle  stroke="#9A916C" id="connector1pin" cx="5.229" cy="16.342" r="2.772" fill="none" stroke-width="0.254"/>
 <circle  stroke="#9A916C" id="connector2pin" cx="106.029" cy="16.342" r="2.772" fill="none" stroke-width="0.254"/>
 <circle  stroke="#9A916C" id="connector0pin" cx="127.629" cy="16.342" r="2.772" fill="none" stroke-width="0.254"/>
 <g >
  <g >
   <g >
    <path  fill="#898989" d="M16.809,18.857L16.809,12.47l9.979,0c1.764,0,3.192,1.43,3.192,3.192c0,1.762,-1.432,3.191,-3.192,3.191L16.809,18.857L16.809,18.857z"/>
    <g >
     <path  fill="#DBDBDB" d="M1.85,24.309c-0.864,0,-1.851,-3.87,-1.851,-8.644c0,-4.774,0.984,-8.646,1.852,-8.646l1.808,0l0,17.287L1.85,24.309L1.85,24.309z"/>
     <path  fill="#898989" d="M1.85,24.309c-0.864,0,-1.282,-3.87,-1.282,-8.645c0,-4.773,0.418,-8.646,1.282,-8.646l2.229,0l0,17.287L1.85,24.309L1.85,24.309z"/>
     <g >
      <g >
       <path  fill="#7C7C7C" d="M26.563,12.266L26.563,7.021L3.657,7.021l0,17.287l22.905,0l0,-5.246l-1.235,0l0,-6.797L26.563,12.266L26.563,12.266zM15.253,17.651L5.804,17.651l0,-3.976l9.449,0c0.859,0,1.557,0.891,1.557,1.987C16.809,16.762,16.115,17.651,15.253,17.651z"/>
      </g>
     </g>
     <g >
      <rect  x="3.45" y="7.031" height="17.276" width="0.729" fill="#3D3D3D"/>
      <rect  x="2.723" y="7.031" height="17.276" width="0.728" fill="#666666"/>
      <rect  x="1.994" y="7.031" height="17.276" width="0.729" fill="#777777"/>
     </g>
     <path  fill="#898989" d="M4.981,15.665c0,2.314,-0.684,4.191,-1.521,4.191c-0.676,0,-0.855,-1.877,-0.855,-4.191c0,-2.315,0.183,-4.192,0.855,-4.192C4.298,11.472,4.981,13.349,4.981,15.665z"/>
     <path  stroke="#A5A5A5" stroke-linecap="round" enable-background="new    " opacity="0.5" fill="none" d="M3.458,19.857c-0.475,0,-0.855,-1.877,-0.855,-4.191c0,-2.315,0.384,-4.192,0.855,-4.192" stroke-miterlimit="10" stroke-width="0.2171"/>
     <path  stroke="#606060" fill="none" d="M3.457,19.857c0.842,0,1.522,-1.877,1.522,-4.191c0,-2.315,-0.683,-4.192,-1.522,-4.192" stroke-miterlimit="10" stroke-width="0.3256"/>
     <g >
      <path  stroke="#A5A5A5" stroke-linecap="round" fill="none" d="M4.164,18.392c0.277,-0.663,0.459,-1.633,0.459,-2.728c0,-1.097,-0.182,-2.063,-0.459,-2.729" stroke-miterlimit="10" stroke-width="0.2809"/>
     </g>
    </g>
    <rect  x="25.046" y="12.266" height="6.797" enable-background="new    " opacity="0.2" width="0.279" fill="#FFFFFF"/>
   </g>
   <g >
    <path  fill="#898989" d="M116.047,18.857L116.047,12.47l-9.979,0c-1.766,0,-3.193,1.43,-3.193,3.192c0,1.762,1.432,3.191,3.193,3.191L116.047,18.857L116.047,18.857z"/>
    <g >
     <path  fill="#DBDBDB" d="M131.006,24.309c0.865,0,1.854,-3.87,1.854,-8.645c0,-4.773,-0.986,-8.646,-1.854,-8.646l-1.805,0l0,17.287L131.006,24.309L131.006,24.309z"/>
     <path  fill="#898989" d="M131.006,24.309c0.865,0,1.283,-3.87,1.283,-8.645c0,-4.773,-0.418,-8.646,-1.283,-8.646l-2.227,0l0,17.287L131.006,24.309L131.006,24.309z"/>
     <g >
      <g >
       <path  fill="#7C7C7C" d="M106.293,7.021l0,5.244l1.238,0l0,6.797l-1.238,0l0,5.246l22.908,0L129.201,7.021L106.293,7.021zM127.052,17.651l-9.449,0c-0.857,0,-1.559,-0.892,-1.559,-1.985c0,-1.1,0.697,-1.987,1.559,-1.987l9.449,0L127.052,17.651z"/>
      </g>
     </g>
     <g >
      <rect  x="128.677" y="7.031" height="17.276" width="0.73" fill="#3D3D3D"/>
      <rect  x="129.408" y="7.031" height="17.276" width="0.727" fill="#666666"/>
      <rect  x="130.133" y="7.031" height="17.276" width="0.729" fill="#777777"/>
     </g>
     <path  fill="#898989" d="M127.875,15.665c0,2.314,0.684,4.191,1.52,4.191c0.678,0,0.857,-1.877,0.857,-4.191c0,-2.315,-0.184,-4.192,-0.857,-4.192C128.556,11.472,127.875,13.349,127.875,15.665z"/>
     <path  stroke="#A5A5A5" stroke-linecap="round" enable-background="new    " opacity="0.5" fill="none" d="M129.396,19.857c0.477,0,0.857,-1.877,0.857,-4.191c0,-2.315,-0.385,-4.192,-0.857,-4.192" stroke-miterlimit="10" stroke-width="0.2171"/>
     <path  stroke="#606060" fill="none" d="M129.398,19.857c-0.842,0,-1.521,-1.877,-1.521,-4.191c0,-2.315,0.684,-4.192,1.521,-4.192" stroke-miterlimit="10" stroke-width="0.3256"/>
     <g >
      <path  stroke="#A5A5A5" stroke-linecap="round" fill="none" d="M128.693,18.392c-0.277,-0.663,-0.457,-1.633,-0.457,-2.728c0,-1.097,0.18,-2.063,0.459,-2.729" stroke-miterlimit="10" stroke-width="0.2809"/>
     </g>
    </g>
    <rect  x="107.533" y="12.266" height="6.797" enable-background="new    " opacity="0.2" width="0.277" fill="#FFFFFF"/>
   </g>
  </g>
  <g >
   <path  fill="#353535" d="M127.051,27.933c0,1.752,-1.666,3.185,-3.701,3.185L7.087,31.118c-2.036,0,-3.7,-1.433,-3.7,-3.185L3.387,4.59c0,-1.75,1.664,-3.186,3.7,-3.186l116.262,0c2.037,0,3.701,1.436,3.701,3.186L127.05,27.933L127.051,27.933z"/>
   <path  fill="#CE925D" d="M91.453,1.456l32.145,0c2.035,0,3.701,1.432,3.701,3.185l0,23.348c0,1.75,-1.666,3.185,-3.701,3.185L91.453,31.174L91.453,1.456z"/>
   <path  enable-background="new    " opacity="0.35" d="M7.369,29.898c-1.533,0,-3.488,-1.223,-3.488,-2.667L3.881,20.55c0,1.447,1.955,3.717,3.488,3.717l115.416,0c1.535,0,3.488,-2.27,3.488,-3.717l0,6.683c0,1.448,-1.953,2.666,-3.488,2.666L7.369,29.898L7.369,29.898z"/>
   <path  fill="#B2B2B2" d="M126.947,16.063c0,6.653,-0.293,12.047,-0.658,12.047s-0.365,-24.094,0,-24.094C126.654,4.018,126.947,9.411,126.947,16.063"/>
   <path  fill="#606060" d="M126.701,20.17c-0.242,0,-0.242,-8.9,0,-8.9l-0.006,0.001c0,0.549,0.262,0.993,0.262,0.993c0.637,0,1.156,0.443,1.156,0.994l0,4.923c0,0.547,-0.521,0.993,-1.156,0.993c0,0,-0.262,0.444,-0.262,0.993L126.701,20.17L126.701,20.17z"/>
  </g>
  <g >
   <g transform="matrix(1, 0, 0, 1, 31.4773, 19.0081)">
    <text  font-size="10" font-family="'OCRA'" fill="#FFFFFF">AAA Battery</text>
   </g>
  </g>
  <g >
   <g  opacity="0.35">
    <g >
     <path  fill="#FFFFFF" d="M108.918,4.68c-1.559,0,-2.834,-0.469,-2.834,-1.041c0,-0.573,-1.273,-1.041,-2.836,-1.041L29.755,2.598c-1.559,0,-2.834,0.468,-2.834,1.041c0,0.572,-1.274,1.041,-2.835,1.041L9.432,4.68c-1.561,0,-2.834,1.274,-2.834,2.834l0,1.861c0,1.56,1.273,2.834,2.834,2.834l111.191,0c1.563,0,2.836,-1.274,2.836,-2.834L123.459,7.514c0,-1.56,-1.273,-2.834,-2.836,-2.834L108.918,4.68z"/>
     <path  fill="#FFFFFF" d="M108.918,4.68c-1.559,0,-2.834,-0.469,-2.834,-1.041c0,-0.573,-1.273,-1.041,-2.836,-1.041L29.755,2.598c-1.559,0,-2.834,0.468,-2.834,1.041c0,0.572,-1.274,1.041,-2.835,1.041L9.432,4.68c-1.561,0,-2.834,1.274,-2.834,2.834l0,1.861c0,1.56,1.273,2.834,2.834,2.834l111.191,0c1.563,0,2.836,-1.274,2.836,-2.834L123.459,7.514c0,-1.56,-1.273,-2.834,-2.836,-2.834L108.918,4.68z"/>
    </g>
   </g>
  </g>
  <g >
   <g >
    <g >
     <path  fill="#DBDBDB" d="M124.926,1.51c0,-0.479,-0.615,-1.51,-3.287,-1.51l-10.816,0c-2.666,0,-3.289,1.029,-3.289,1.51l0,1.616l17.396,0L124.926,1.51L124.926,1.51z"/>
    </g>
    <g >
     <path  fill="#898989" d="M124.926,1.51c0,-0.332,-0.615,-1.315,-3.287,-1.237l-10.816,0c-2.666,-0.078,-3.289,0.979,-3.289,1.237l0,1.517l17.396,0L124.926,1.51L124.926,1.51z"/>
    </g>
    <g >
     <rect  x="107.533" y="2.801" height="0.667" width="17.395" fill="#3D3D3D"/>
     <rect  x="107.533" y="2.133" height="0.668" width="17.395" fill="#666666"/>
     <rect  x="107.533" y="1.467" height="0.666" width="17.395" fill="#777777"/>
    </g>
   </g>
   <g >
    <g >
     <path  fill="#DBDBDB" d="M124.926,31.173c0,0.479,-0.615,1.511,-3.287,1.511l-10.816,0c-2.666,0,-3.289,-1.032,-3.289,-1.511l0,-1.614l17.396,0L124.926,31.173L124.926,31.173z"/>
    </g>
    <g >
     <path  fill="#898989" d="M124.926,31.173c0,0.332,-0.615,1.314,-3.287,1.238l-10.816,0c-2.666,0.076,-3.289,-0.979,-3.289,-1.238l0,-1.515l17.396,0L124.926,31.173L124.926,31.173z"/>
    </g>
    <g >
     <rect  x="107.533" y="29.216" height="0.667" width="17.395" fill="#3D3D3D"/>
     <rect  x="107.533" y="29.883" height="0.666" width="17.395" fill="#666666"/>
     <rect  x="107.533" y="30.549" height="0.668" width="17.395" fill="#777777"/>
    </g>
   </g>
   <g >
    <g >
     <g >
      <path  fill="#DBDBDB" d="M7.93,1.51C7.93,1.03,8.548,0,11.221,0l10.813,0c2.668,0,3.291,1.029,3.291,1.51l0,1.616L7.93,3.126L7.93,1.51z"/>
     </g>
     <g >
      <path  fill="#898989" d="M7.93,1.51c0,-0.332,0.617,-1.315,3.291,-1.237l10.813,0c2.668,-0.078,3.291,0.979,3.291,1.237l0,1.517L7.93,3.027L7.93,1.51z"/>
     </g>
     <g >
      <rect  x="7.93" y="2.801" height="0.667" width="17.396" fill="#3D3D3D"/>
      <rect  x="7.93" y="2.133" height="0.668" width="17.396" fill="#666666"/>
      <rect  x="7.93" y="1.467" height="0.666" width="17.396" fill="#777777"/>
     </g>
    </g>
   </g>
   <g >
    <g >
     <path  fill="#DBDBDB" d="M7.93,31.173c0,0.479,0.617,1.511,3.291,1.511l10.813,0c2.668,0,3.291,-1.032,3.291,-1.511l0,-1.614L7.93,29.559L7.93,31.173z"/>
    </g>
    <g >
     <path  fill="#898989" d="M7.93,31.173c0,0.332,0.617,1.314,3.291,1.238l10.813,0c2.668,0.076,3.291,-0.979,3.291,-1.238l0,-1.515L7.93,29.658L7.93,31.173z"/>
    </g>
    <g >
     <rect  x="7.93" y="29.216" height="0.667" width="17.396" fill="#3D3D3D"/>
     <rect  x="7.93" y="29.883" height="0.666" width="17.396" fill="#666666"/>
     <rect  x="7.93" y="30.549" height="0.668" width="17.396" fill="#777777"/>
    </g>
   </g>
  </g>
 </g>
 <g transform="matrix(1, 0, 0, 1, 11.1306, 18.8381)">
  <text  font-size="9.36" font-family="'OCRA'" fill="#F8F8F8">-</text>
 </g>
 <g transform="matrix(1, 0, 0, 1, 118.697, 18.8381)">
  <text  font-size="9.36" font-family="'OCRA'" fill="#F8F8F8">+</text>
 </g>
</g>
</g></g><g partID='854430430'><line stroke-linecap='round' stroke='#1b5bb3' x1='473.23' y1='46.8328' x2='397.27' y2='21.2728' stroke-width='3.2' /><line stroke-linecap='round' stroke='#418dd9' x1='473.23' y1='46.8328' x2='397.27' y2='21.2728' stroke-width='1.6' /></g><g partID='854430500'><line stroke-linecap='round' stroke='#00a527' x1='473.23' y1='54.0328' x2='365.95' y2='21.2728' stroke-width='3.2' /><line stroke-linecap='round' stroke='#25cc35' x1='473.23' y1='54.0328' x2='365.95' y2='21.2728' stroke-width='1.6' /></g><g partID='854430570'><line stroke-linecap='round' stroke='#8c0000' x1='473.23' y1='61.2328' x2='412.606' y2='48.2728' stroke-width='3.2' /><line stroke-linecap='round' stroke='#cc1414' x1='473.23' y1='61.2328' x2='412.606' y2='48.2728' stroke-width='1.6' /></g><g partID='854430640'><line stroke-linecap='round' stroke='#ad6a38' x1='595.63' y1='61.2328' x2='584.865' y2='42.5868' stroke-width='3.2' /><line stroke-linecap='round' stroke='#ef6100' x1='595.63' y1='61.2328' x2='584.865' y2='42.5868' stroke-width='1.6' /></g><g partID='854430780'><line stroke-linecap='round' stroke='#ad6a38' x1='584.865' y1='79.8798' x2='595.63' y2='61.2328' stroke-width='3.2' /><line stroke-linecap='round' stroke='#ef6100' x1='584.865' y1='79.8798' x2='595.63' y2='61.2328' stroke-width='1.6' /></g><g partID='854433940'><line stroke-linecap='round' stroke='#000000' x1='473.23' y1='68.4328' x2='381.43' y2='58.3528' stroke-width='3.2' /><line stroke-linecap='round' stroke='#404040' x1='473.23' y1='68.4328' x2='381.43' y2='58.3528' stroke-width='1.6' /></g><g partID='854436540'><line stroke-linecap='round' stroke='#000000' x1='5.09952' y1='89.8523' x2='5.22969' y2='61.2328' stroke-width='3.2' /><line stroke-linecap='round' stroke='#404040' x1='5.09952' y1='89.8523' x2='5.22969' y2='61.2328' stroke-width='1.6' /></g><g partID='854435670'><line stroke-linecap='round' stroke='#000000' x1='242.708' y1='89.9038' x2='5.10032' y2='89.8524' stroke-width='3.2' /><line stroke-linecap='round' stroke='#404040' x1='242.708' y1='89.9038' x2='5.10032' y2='89.8524' stroke-width='1.6' /></g><g partID='854435600'><line stroke-linecap='round' stroke='#000000' x1='494.821' y1='89.9038' x2='242.708' y2='89.9038' stroke-width='3.2' /><line stroke-linecap='round' stroke='#404040' x1='494.821' y1='89.9038' x2='242.708' y2='89.9038' stroke-width='1.6' /></g><g partID='854434830'><line stroke-linecap='round' stroke='#000000' x1='494.83' y1='68.4328' x2='494.821' y2='89.9038' stroke-width='3.2' /><line stroke-linecap='round' stroke='#404040' x1='494.83' y1='68.4328' x2='494.821' y2='89.9038' stroke-width='1.6' /></g><g partID='854436920'><line stroke-linecap='round' stroke='#ad6a38' x1='5.09952' y1='3.4232' x2='5.22986' y2='25.2325' stroke-width='3.2' /><line stroke-linecap='round' stroke='#ef6100' x1='5.09952' y1='3.4232' x2='5.22986' y2='25.2325' stroke-width='1.6' /></g><g partID='854435110'><line stroke-linecap='round' stroke='#ad6a38' x1='55.6303' y1='3.6324' x2='5.09952' y2='3.4232' stroke-width='3.2' /><line stroke-linecap='round' stroke='#ef6100' x1='55.6303' y1='3.6324' x2='5.09952' y2='3.4232' stroke-width='1.6' /></g><g partID='854435230'><line stroke-linecap='round' stroke='#ad6a38' x1='91.6295' y1='3.6332' x2='84.4354' y2='3.6324' stroke-width='3.2' /><line stroke-linecap='round' stroke='#ef6100' x1='91.6295' y1='3.6332' x2='84.4354' y2='3.6324' stroke-width='1.6' /></g><g partID='854436650'><line stroke-linecap='round' stroke='#ad6a38' x1='473.092' y1='3.4232' x2='473.23' y2='39.6325' stroke-width='3.2' /><line stroke-linecap='round' stroke='#ef6100' x1='473.092' y1='3.4232' x2='473.23' y2='39.6325' stroke-width='1.6' /></g><g partID='854435380'><line stroke-linecap='round' stroke='#ad6a38' x1='120.435' y1='3.6332' x2='473.092' y2='3.4232' stroke-width='3.2' /><line stroke-linecap='round' stroke='#ef6100' x1='120.435' y1='3.6332' x2='473.092' y2='3.4232' stroke-width='1.6' /></g><g partID='854435880'><line stroke-linecap='round' stroke='#8c0000' x1='563.336' y1='79.8808' x2='494.83' y2='61.2328' stroke-width='3.2' /><line stroke-linecap='round' stroke='#cc1414' x1='563.336' y1='79.8808' x2='494.83' y2='61.2328' stroke-width='1.6' /></g><g partID='854435950'><line stroke-linecap='round' stroke='#00a527' x1='552.568' y1='61.2333' x2='494.83' y2='54.0328' stroke-width='3.2' /><line stroke-linecap='round' stroke='#25cc35' x1='552.568' y1='61.2333' x2='494.83' y2='54.0328' stroke-width='1.6' /></g><g partID='854436020'><line stroke-linecap='round' stroke='#1b5bb3' x1='563.332' y1='42.588' x2='494.83' y2='46.833' stroke-width='3.2' /><line stroke-linecap='round' stroke='#418dd9' x1='563.332' y1='42.588' x2='494.83' y2='46.833' stroke-width='1.6' /></g><g partID='854437450'><line stroke-linecap='round' stroke='#ad6a38' x1='574.253' y1='32.3968' x2='584.865' y2='42.5867' stroke-width='3.2' /><line stroke-linecap='round' stroke='#ef6100' x1='574.253' y1='32.3968' x2='584.865' y2='42.5867' stroke-width='1.6' /></g><g partID='854436090'><line stroke-linecap='round' stroke='#ad6a38' x1='494.83' y1='39.6328' x2='574.253' y2='32.3968' stroke-width='3.2' /><line stroke-linecap='round' stroke='#ef6100' x1='494.83' y1='39.6328' x2='574.253' y2='32.3968' stroke-width='1.6' /></g><g partID='854436720'><line stroke-linecap='round' stroke='#1b5bb3' x1='257.23' y1='61.2328' x2='257.23' y2='25.2328' stroke-width='3.2' /><line stroke-linecap='round' stroke='#418dd9' x1='257.23' y1='61.2328' x2='257.23' y2='25.2328' stroke-width='1.6' /></g></svg>