<?xml version='1.0' encoding='UTF-8' standalone='no'?>
<!-- Created with Fritzing (http://www.fritzing.org/) -->
<svg xmlns:svg='http://www.w3.org/2000/svg' xmlns='http://www.w3.org/2000/svg' version='1.2' baseProfile='tiny' x='0in' y='0in' width='8.0453in' height='2.02in' viewBox='0 0 579.262 145.44' >
<g partID='854418700'><g transform='translate(559.869,22.1635)' ><g transform='matrix(-4.44089e-16,1,-1,-4.44089e-16,0,0)'  ><g  id="breadboard">
 <path  id="PCB" fill="#201D18" d="M9.266,11.491l2.39,-4.139l0.964,1.67c0,0,2.275,3.955,6.19,1.693c3.916,-2.261,1.713,-6.257,1.713,-6.257l-0.964,-1.67l4.813,-0.002l8.458,-0.014l4.779,0.001l-0.964,1.669c0,0,-2.287,3.947,1.627,6.208c3.916,2.261,6.274,-1.646,6.274,-1.646l0.966,-1.669l2.407,4.167l4.24,7.318l2.389,4.14l-1.928,0c0,0,-4.562,-0.008,-4.562,4.514c0,4.521,4.562,4.611,4.562,4.611l1.928,0l-2.404,4.169l-4.219,7.332l-2.389,4.14l-0.965,-1.67c0,0,-2.275,-3.955,-6.189,-1.694c-3.916,2.261,-1.713,6.257,-1.713,6.257l0.963,1.67l-4.812,0.002l-8.458,0.015l-4.78,-0.001l0.964,-1.669c0,0,2.287,-3.947,-1.627,-6.208c-3.916,-2.262,-6.275,1.646,-6.275,1.646l-0.965,1.669l-2.407,-4.167l-4.24,-7.318l-2.39,-4.14l1.928,0c0,0,4.562,0.008,4.562,-4.514s-4.562,-4.611,-4.562,-4.611L2.644,22.993l2.405,-4.169L9.266,11.491z"/>
 <g >
  <polygon  points="36.514,9.879,32.944,9.879,32.944,19.679,34.729,19.679,34.729,15.817,36.514,15.817" fill="#C0B098"/>
  <polygon  points="21.425,9.879,24.995,9.879,24.995,19.679,23.21,19.679,23.21,15.817,21.425,15.817" fill="#C0B098"/>
  <polygon  points="27.237,9.879,30.807,9.879,30.807,15.8,29.893,15.8,29.911,19.679,28.192,19.679,28.192,15.8,27.237,15.817" fill="#C0B098"/>
 </g>
 <g >
  <polygon  points="21.425,45.097,24.995,45.097,24.995,35.298,23.21,35.298,23.21,39.16,21.425,39.16" fill="#C0B098"/>
  <polygon  points="36.514,45.097,32.944,45.097,32.944,35.298,34.729,35.298,34.729,39.16,36.514,39.16" fill="#C0B098"/>
  <polygon  points="30.702,45.097,27.131,45.097,27.131,39.177,28.046,39.177,28.027,35.298,29.747,35.298,29.747,39.177,30.702,39.16" fill="#C0B098"/>
 </g>
 <path  id="path10215" fill="#9FC5C5" d="M19.358,32.042l0.039,-9.193c0,0,0.983,-1.364,2.27,-2.694c1.154,-1.192,2.731,-2.116,2.731,-2.116L33.013,18c0,0,2.019,1.059,3.271,2.349c1.232,1.268,2.154,2.961,2.154,2.961l0.037,8.579c0,0,-0.891,1.539,-1.883,2.576c-1.104,1.151,-3.155,2.501,-3.155,2.501l-9.27,0.114c0,0,-1.153,-0.616,-2.616,-2.115C20.143,33.522,19.358,32.042,19.358,32.042z"/>
 <path  stroke="#FFFFFF" id="path10211" fill="#B0D0D1" d="M37.375,27.521c0,4.683,-3.797,8.479,-8.479,8.479c-4.681,0,-8.478,-3.797,-8.478,-8.479c0,-4.684,3.795,-8.479,8.478,-8.479C33.581,19.044,37.375,22.839,37.375,27.521z" stroke-width="1.0552"/>
 <linearGradient  gradientUnits="userSpaceOnUse" id="path10485_1_" y1="1128.14" y2="1128.14" gradientTransform="matrix(0.0602 0.3652 0.8744 -0.103 -1045.524 -392.8369)" x1="1449.96" x2="1473.21">
  <stop  style="stop-color:#FFFFFF;stop-opacity:0.6891" offset="0"/>
  <stop  style="stop-color:#FFFFFF;stop-opacity:0" offset="0.5864"/>
  <stop  style="stop-color:#E2FEFF;stop-opacity:0" offset="1"/>
 </linearGradient>
 <path  id="path10485" fill="url(#path10485_1_)" d="M29.667,28.987c-3.361,0.365,-6.426,-1.234,-6.846,-3.576c-0.417,-2.342,1.968,-4.535,5.332,-4.899c3.363,-0.366,6.43,1.234,6.848,3.576C35.417,26.427,33.032,28.622,29.667,28.987z"/>
 <g transform="matrix(-0.5, -0.866, 0.866, -0.5, 56.3406, 66.0727)">
  <rect  x="42.363" y="14.486" height="4.575" width="9.759" fill="#FBBE0E"/>
 </g>
 <g transform="matrix(-0.5, -0.866, 0.866, -0.5, -18.2463, 66.0777)">
  <rect  x="5.073" y="36.019" height="4.574" width="9.755" fill="#FBBE0E"/>
 </g>
 <g transform="matrix(-0.5, 0.866, -0.866, -0.5, 29.4525, 16.5434)">
  <rect  x="5.072" y="14.487" height="4.575" width="9.757" fill="#FBBE0E"/>
 </g>
 <g transform="matrix(-0.4999, 0.8661, -0.8661, -0.4999, 104.035, 16.5317)">
  <rect  x="42.366" y="36.015" height="4.577" width="9.757" fill="#FBBE0E"/>
 </g>
 <rect  x="23.718" y="3.721" height="4.574" width="9.757" fill="#FBBE0E"/>
 <rect  x="23.719" y="46.784" height="4.574" width="9.756" fill="#FBBE0E"/>
 <g transform="matrix(1, 0, 0, 1, 39.6001, 22.1433)">
  <text  font-size="4" font-family="'OCRAStd'" fill="#FFFFFF">R+</text>
 </g>
 <g transform="matrix(1, 0, 0, 1, 39.6001, 36.1794)">
  <text  font-size="4" font-family="'OCRAStd'" fill="#FFFFFF">R-</text>
 </g>
 <g transform="matrix(1, 0, 0, 1, 12.4746, 22.1423)">
  <text  font-size="4" font-family="'OCRAStd'" fill="#FFFFFF">B+</text>
 </g>
 <g transform="matrix(1, 0, 0, 1, 12.4746, 36.1794)">
  <text  font-size="4" font-family="'OCRAStd'" fill="#FFFFFF">B-</text>
 </g>
 <polygon  points="9.493,32.938,14.371,41.386,10.41,43.674,7.899,39.326,5.532,35.225" id="connector6" fill="none"/>
 <polygon  points="23.719,46.784,33.475,46.784,33.475,51.358,29.346,51.358,23.719,51.358" id="connector5" fill="none"/>
 <polygon  points="42.824,41.385,47.701,32.934,51.665,35.222,49.427,39.097,46.787,43.672" id="connector4" fill="none"/>
 <polygon  points="46.784,11.404,49.888,16.78,51.664,19.855,47.702,22.142,42.823,13.692" id="connector3" fill="none"/>
 <polygon  points="23.718,3.721,29.221,3.721,33.475,3.721,33.475,8.296,23.718,8.296" id="connector2" fill="none"/>
 <polygon  points="5.53,19.855,7.984,15.604,10.409,11.405,14.371,13.693,9.492,22.142" id="connector1" fill="none"/>
</g>
</g></g></g><g partID='854433690'><g transform='translate(435.059,32.7625)' ><g transform='matrix(0,1,-1,0,0,0)'  ><g id="breadboard" xmlns="http://www.w3.org/2000/svg">
<rect height="7.2" width="28.8" fill="#404040" xmlns="http://www.w3.org/2000/svg"/>
<rect x="2.20843" y="2.20843" id="connector0pin" height="2.78312" width="2.78312" fill="none" xmlns="http://www.w3.org/2000/svg"/>
<g x="2.51834" y="2.47054" id="connector0terminal" height="2.25658" width="2.15829" fill="none" xmlns="http://www.w3.org/2000/svg"/>
<rect x="2.20843" y="2.20843" height="2.78312" width="2.78312" xmlns="http://www.w3.org/2000/svg"/>
<polygon points="1.18445,1.18445,2.20843,2.20843,4.99156,2.20843,6.01654,1.18445" fill="#2A2A29" xmlns="http://www.w3.org/2000/svg"/>
<polygon points="6.01654,1.18445,4.99156,2.20843,4.99156,4.99156,6.01654,6.01654" fill="#474747" xmlns="http://www.w3.org/2000/svg"/>
<polygon points="6.01654,6.01654,4.99156,4.99156,2.20843,4.99156,1.18445,6.01654" fill="#595959" xmlns="http://www.w3.org/2000/svg"/>
<polygon points="1.18445,6.01654,2.20843,4.99156,2.20843,2.20843,1.18445,1.18445" fill="#373737" xmlns="http://www.w3.org/2000/svg"/>
<rect x="9.40846" y="2.20843" id="connector1pin" height="2.78312" width="2.78312" fill="none" xmlns="http://www.w3.org/2000/svg"/>
<g x="9.71834" y="2.47054" id="connector1terminal" height="2.25658" width="2.15829" fill="none" xmlns="http://www.w3.org/2000/svg"/>
<rect x="9.40846" y="2.20843" height="2.78312" width="2.78312" xmlns="http://www.w3.org/2000/svg"/>
<polygon points="8.38447,1.18445,9.40846,2.20843,12.1915,2.20843,13.2165,1.18445" fill="#2A2A29" xmlns="http://www.w3.org/2000/svg"/>
<polygon points="13.2165,1.18445,12.1915,2.20843,12.1915,4.99156,13.2165,6.01654" fill="#474747" xmlns="http://www.w3.org/2000/svg"/>
<polygon points="13.2165,6.01654,12.1915,4.99156,9.40846,4.99156,8.38447,6.01654" fill="#595959" xmlns="http://www.w3.org/2000/svg"/>
<polygon points="8.38447,6.01654,9.40846,4.99156,9.40846,2.20843,8.38447,1.18445" fill="#373737" xmlns="http://www.w3.org/2000/svg"/>
<rect x="16.6085" y="2.20843" id="connector2pin" height="2.78312" width="2.78312" fill="none" xmlns="http://www.w3.org/2000/svg"/>
<g x="16.9183" y="2.47054" id="connector2terminal" height="2.25658" width="2.15829" fill="none" xmlns="http://www.w3.org/2000/svg"/>
<rect x="16.6085" y="2.20843" height="2.78312" width="2.78312" xmlns="http://www.w3.org/2000/svg"/>
<polygon points="15.5845,1.18445,16.6085,2.20843,19.3915,2.20843,20.4165,1.18445" fill="#2A2A29" xmlns="http://www.w3.org/2000/svg"/>
<polygon points="20.4165,1.18445,19.3915,2.20843,19.3915,4.99156,20.4165,6.01654" fill="#474747" xmlns="http://www.w3.org/2000/svg"/>
<polygon points="20.4165,6.01654,19.3915,4.99156,16.6085,4.99156,15.5845,6.01654" fill="#595959" xmlns="http://www.w3.org/2000/svg"/>
<polygon points="15.5845,6.01654,16.6085,4.99156,16.6085,2.20843,15.5845,1.18445" fill="#373737" xmlns="http://www.w3.org/2000/svg"/>
<rect x="23.8085" y="2.20843" id="connector3pin" height="2.78312" width="2.78312" fill="none" xmlns="http://www.w3.org/2000/svg"/>
<g x="24.1183" y="2.47054" id="connector3terminal" height="2.25658" width="2.15829" fill="none" xmlns="http://www.w3.org/2000/svg"/>
<rect x="23.8085" y="2.20843" height="2.78312" width="2.78312" xmlns="http://www.w3.org/2000/svg"/>
<polygon points="22.7845,1.18445,23.8085,2.20843,26.5915,2.20843,27.6165,1.18445" fill="#2A2A29" xmlns="http://www.w3.org/2000/svg"/>
<polygon points="27.6165,1.18445,26.5915,2.20843,26.5915,4.99156,27.6165,6.01654" fill="#474747" xmlns="http://www.w3.org/2000/svg"/>
<polygon points="27.6165,6.01654,26.5915,4.99156,23.8085,4.99156,22.7845,6.01654" fill="#595959" xmlns="http://www.w3.org/2000/svg"/>
<polygon points="22.7845,6.01654,23.8085,4.99156,23.8085,2.20843,22.7845,1.18445" fill="#373737" xmlns="http://www.w3.org/2000/svg"/>
</g>
</g></g></g><g partID='854434170'><g transform='translate(442.261,32.7595)' ><g transform='matrix(0,1,-1,0,0,0)'  ><g id="breadboard" xmlns="http://www.w3.org/2000/svg">
<polygon points="1.56321,0,0,1.56321,0,5.63578,1.56321,7.2,5.63578,7.2,7.2,5.63578,7.2,1.56321,5.63578,0,1.56321,0" fill="#404040" xmlns="http://www.w3.org/2000/svg"/>
<rect x="2.2043" y="2.2043" id="connector0pin" height="2.79138" width="2.79138" fill="none" xmlns="http://www.w3.org/2000/svg"/>
<g x="2.51834" y="2.46934" id="connector0terminal" height="2.26231" width="2.1643" fill="none" xmlns="http://www.w3.org/2000/svg"/>
<rect x="2.45133" y="2.45133" height="2.29832" width="2.29832" fill="#8D8C8C" xmlns="http://www.w3.org/2000/svg"/>
<rect x="3.00941" y="3.00941" height="1.18216" width="1.18216" fill="#8C8663" xmlns="http://www.w3.org/2000/svg"/>
<polygon points="2.45133,2.45133,3.00941,3.00941,4.19058,3.00941,4.74965,2.45133" fill="#B8AF82" xmlns="http://www.w3.org/2000/svg"/>
<polygon points="4.19058,4.19058,4.19058,3.00941,4.74965,2.45133,4.74965,4.74965" fill="#80795B" xmlns="http://www.w3.org/2000/svg"/>
<polygon points="3.00941,4.19058,4.19058,4.19058,4.74965,4.74965,2.45133,4.74965" fill="#5E5B43" xmlns="http://www.w3.org/2000/svg"/>
<polygon points="2.45133,2.45133,3.00941,3.00941,3.00941,4.19058,2.45133,4.74965" fill="#9A916C" xmlns="http://www.w3.org/2000/svg"/>
<polygon points="8.76319,0,7.2,1.56321,7.2,5.63578,8.76319,7.2,12.8358,7.2,14.4,5.63578,14.4,1.56321,12.8358,0,8.76319,0" fill="#404040" xmlns="http://www.w3.org/2000/svg"/>
<rect x="9.40428" y="2.2043" id="connector1pin" height="2.79138" width="2.79138" fill="none" xmlns="http://www.w3.org/2000/svg"/>
<g x="9.71834" y="2.46934" id="connector1terminal" height="2.26231" width="2.1643" fill="none" xmlns="http://www.w3.org/2000/svg"/>
<rect x="9.65131" y="2.45133" height="2.29832" width="2.29832" fill="#8D8C8C" xmlns="http://www.w3.org/2000/svg"/>
<rect x="10.2094" y="3.00941" height="1.18216" width="1.18216" fill="#8C8663" xmlns="http://www.w3.org/2000/svg"/>
<polygon points="9.65131,2.45133,10.2094,3.00941,11.3906,3.00941,11.9496,2.45133" fill="#B8AF82" xmlns="http://www.w3.org/2000/svg"/>
<polygon points="11.3906,4.19058,11.3906,3.00941,11.9496,2.45133,11.9496,4.74965" fill="#80795B" xmlns="http://www.w3.org/2000/svg"/>
<polygon points="10.2094,4.19058,11.3906,4.19058,11.9496,4.74965,9.65131,4.74965" fill="#5E5B43" xmlns="http://www.w3.org/2000/svg"/>
<polygon points="9.65131,2.45133,10.2094,3.00941,10.2094,4.19058,9.65131,4.74965" fill="#9A916C" xmlns="http://www.w3.org/2000/svg"/>
<polygon points="15.9632,0,14.4,1.56321,14.4,5.63578,15.9632,7.2,20.0358,7.2,21.6,5.63578,21.6,1.56321,20.0358,0,15.9632,0" fill="#404040" xmlns="http://www.w3.org/2000/svg"/>
<rect x="16.6043" y="2.2043" id="connector2pin" height="2.79138" width="2.79138" fill="none" xmlns="http://www.w3.org/2000/svg"/>
<g x="16.9183" y="2.46934" id="connector2terminal" height="2.26231" width="2.1643" fill="none" xmlns="http://www.w3.org/2000/svg"/>
<rect x="16.8513" y="2.45133" height="2.29832" width="2.29832" fill="#8D8C8C" xmlns="http://www.w3.org/2000/svg"/>
<rect x="17.4094" y="3.00941" height="1.18216" width="1.18216" fill="#8C8663" xmlns="http://www.w3.org/2000/svg"/>
<polygon points="16.8513,2.45133,17.4094,3.00941,18.5906,3.00941,19.1496,2.45133" fill="#B8AF82" xmlns="http://www.w3.org/2000/svg"/>
<polygon points="18.5906,4.19058,18.5906,3.00941,19.1496,2.45133,19.1496,4.74965" fill="#80795B" xmlns="http://www.w3.org/2000/svg"/>
<polygon points="17.4094,4.19058,18.5906,4.19058,19.1496,4.74965,16.8513,4.74965" fill="#5E5B43" xmlns="http://www.w3.org/2000/svg"/>
<polygon points="16.8513,2.45133,17.4094,3.00941,17.4094,4.19058,16.8513,4.74965" fill="#9A916C" xmlns="http://www.w3.org/2000/svg"/>
<polygon points="23.1632,0,21.6,1.56321,21.6,5.63578,23.1632,7.2,27.2358,7.2,28.8,5.63578,28.8,1.56321,27.2358,0,23.1632,0" fill="#404040" xmlns="http://www.w3.org/2000/svg"/>
<rect x="23.8043" y="2.2043" id="connector3pin" height="2.79138" width="2.79138" fill="none" xmlns="http://www.w3.org/2000/svg"/>
<g x="24.1183" y="2.46934" id="connector3terminal" height="2.26231" width="2.1643" fill="none" xmlns="http://www.w3.org/2000/svg"/>
<rect x="24.0513" y="2.45133" height="2.29832" width="2.29832" fill="#8D8C8C" xmlns="http://www.w3.org/2000/svg"/>
<rect x="24.6094" y="3.00941" height="1.18216" width="1.18216" fill="#8C8663" xmlns="http://www.w3.org/2000/svg"/>
<polygon points="24.0513,2.45133,24.6094,3.00941,25.7906,3.00941,26.3496,2.45133" fill="#B8AF82" xmlns="http://www.w3.org/2000/svg"/>
<polygon points="25.7906,4.19058,25.7906,3.00941,26.3496,2.45133,26.3496,4.74965" fill="#80795B" xmlns="http://www.w3.org/2000/svg"/>
<polygon points="24.6094,4.19058,25.7906,4.19058,26.3496,4.74965,24.0513,4.74965" fill="#5E5B43" xmlns="http://www.w3.org/2000/svg"/>
<polygon points="24.0513,2.45133,24.6094,3.00941,24.6094,4.19058,24.0513,4.74965" fill="#9A916C" xmlns="http://www.w3.org/2000/svg"/>
</g>
</g></g></g><g partID='854434270'><g transform='translate(449.459,25.5625)' ><g transform='matrix(0,1,-1,0,0,0)'  ><g id="breadboard" xmlns="http://www.w3.org/2000/svg">
<rect height="7.2" width="28.8" fill="#404040" xmlns="http://www.w3.org/2000/svg"/>
<rect x="2.20843" y="2.20843" id="connector0pin" height="2.78312" width="2.78312" fill="none" xmlns="http://www.w3.org/2000/svg"/>
<g x="2.51834" y="2.47054" id="connector0terminal" height="2.25658" width="2.15829" fill="none" xmlns="http://www.w3.org/2000/svg"/>
<rect x="2.20843" y="2.20843" height="2.78312" width="2.78312" xmlns="http://www.w3.org/2000/svg"/>
<polygon points="1.18445,1.18445,2.20843,2.20843,4.99156,2.20843,6.01654,1.18445" fill="#2A2A29" xmlns="http://www.w3.org/2000/svg"/>
<polygon points="6.01654,1.18445,4.99156,2.20843,4.99156,4.99156,6.01654,6.01654" fill="#474747" xmlns="http://www.w3.org/2000/svg"/>
<polygon points="6.01654,6.01654,4.99156,4.99156,2.20843,4.99156,1.18445,6.01654" fill="#595959" xmlns="http://www.w3.org/2000/svg"/>
<polygon points="1.18445,6.01654,2.20843,4.99156,2.20843,2.20843,1.18445,1.18445" fill="#373737" xmlns="http://www.w3.org/2000/svg"/>
<rect x="9.40846" y="2.20843" id="connector1pin" height="2.78312" width="2.78312" fill="none" xmlns="http://www.w3.org/2000/svg"/>
<g x="9.71834" y="2.47054" id="connector1terminal" height="2.25658" width="2.15829" fill="none" xmlns="http://www.w3.org/2000/svg"/>
<rect x="9.40846" y="2.20843" height="2.78312" width="2.78312" xmlns="http://www.w3.org/2000/svg"/>
<polygon points="8.38447,1.18445,9.40846,2.20843,12.1915,2.20843,13.2165,1.18445" fill="#2A2A29" xmlns="http://www.w3.org/2000/svg"/>
<polygon points="13.2165,1.18445,12.1915,2.20843,12.1915,4.99156,13.2165,6.01654" fill="#474747" xmlns="http://www.w3.org/2000/svg"/>
<polygon points="13.2165,6.01654,12.1915,4.99156,9.40846,4.99156,8.38447,6.01654" fill="#595959" xmlns="http://www.w3.org/2000/svg"/>
<polygon points="8.38447,6.01654,9.40846,4.99156,9.40846,2.20843,8.38447,1.18445" fill="#373737" xmlns="http://www.w3.org/2000/svg"/>
<rect x="16.6085" y="2.20843" id="connector2pin" height="2.78312" width="2.78312" fill="none" xmlns="http://www.w3.org/2000/svg"/>
<g x="16.9183" y="2.47054" id="connector2terminal" height="2.25658" width="2.15829" fill="none" xmlns="http://www.w3.org/2000/svg"/>
<rect x="16.6085" y="2.20843" height="2.78312" width="2.78312" xmlns="http://www.w3.org/2000/svg"/>
<polygon points="15.5845,1.18445,16.6085,2.20843,19.3915,2.20843,20.4165,1.18445" fill="#2A2A29" xmlns="http://www.w3.org/2000/svg"/>
<polygon points="20.4165,1.18445,19.3915,2.20843,19.3915,4.99156,20.4165,6.01654" fill="#474747" xmlns="http://www.w3.org/2000/svg"/>
<polygon points="20.4165,6.01654,19.3915,4.99156,16.6085,4.99156,15.5845,6.01654" fill="#595959" xmlns="http://www.w3.org/2000/svg"/>
<polygon points="15.5845,6.01654,16.6085,4.99156,16.6085,2.20843,15.5845,1.18445" fill="#373737" xmlns="http://www.w3.org/2000/svg"/>
<rect x="23.8085" y="2.20843" id="connector3pin" height="2.78312" width="2.78312" fill="none" xmlns="http://www.w3.org/2000/svg"/>
<g x="24.1183" y="2.47054" id="connector3terminal" height="2.25658" width="2.15829" fill="none" xmlns="http://www.w3.org/2000/svg"/>
<rect x="23.8085" y="2.20843" height="2.78312" width="2.78312" xmlns="http://www.w3.org/2000/svg"/>
<polygon points="22.7845,1.18445,23.8085,2.20843,26.5915,2.20843,27.6165,1.18445" fill="#2A2A29" xmlns="http://www.w3.org/2000/svg"/>
<polygon points="27.6165,1.18445,26.5915,2.20843,26.5915,4.99156,27.6165,6.01654" fill="#474747" xmlns="http://www.w3.org/2000/svg"/>
<polygon points="27.6165,6.01654,26.5915,4.99156,23.8085,4.99156,22.7845,6.01654" fill="#595959" xmlns="http://www.w3.org/2000/svg"/>
<polygon points="22.7845,6.01654,23.8085,4.99156,23.8085,2.20843,22.7845,1.18445" fill="#373737" xmlns="http://www.w3.org/2000/svg"/>
</g>
</g></g></g><g partID='854434300'><g transform='translate(456.659,25.5625)' ><g transform='matrix(0,1,-1,0,0,0)'  ><g id="breadboard" xmlns="http://www.w3.org/2000/svg">
<rect height="7.2" width="28.8" fill="#404040" xmlns="http://www.w3.org/2000/svg"/>
<rect x="2.20843" y="2.20843" id="connector0pin" height="2.78312" width="2.78312" fill="none" xmlns="http://www.w3.org/2000/svg"/>
<g x="2.51834" y="2.47054" id="connector0terminal" height="2.25658" width="2.15829" fill="none" xmlns="http://www.w3.org/2000/svg"/>
<rect x="2.20843" y="2.20843" height="2.78312" width="2.78312" xmlns="http://www.w3.org/2000/svg"/>
<polygon points="1.18445,1.18445,2.20843,2.20843,4.99156,2.20843,6.01654,1.18445" fill="#2A2A29" xmlns="http://www.w3.org/2000/svg"/>
<polygon points="6.01654,1.18445,4.99156,2.20843,4.99156,4.99156,6.01654,6.01654" fill="#474747" xmlns="http://www.w3.org/2000/svg"/>
<polygon points="6.01654,6.01654,4.99156,4.99156,2.20843,4.99156,1.18445,6.01654" fill="#595959" xmlns="http://www.w3.org/2000/svg"/>
<polygon points="1.18445,6.01654,2.20843,4.99156,2.20843,2.20843,1.18445,1.18445" fill="#373737" xmlns="http://www.w3.org/2000/svg"/>
<rect x="9.40846" y="2.20843" id="connector1pin" height="2.78312" width="2.78312" fill="none" xmlns="http://www.w3.org/2000/svg"/>
<g x="9.71834" y="2.47054" id="connector1terminal" height="2.25658" width="2.15829" fill="none" xmlns="http://www.w3.org/2000/svg"/>
<rect x="9.40846" y="2.20843" height="2.78312" width="2.78312" xmlns="http://www.w3.org/2000/svg"/>
<polygon points="8.38447,1.18445,9.40846,2.20843,12.1915,2.20843,13.2165,1.18445" fill="#2A2A29" xmlns="http://www.w3.org/2000/svg"/>
<polygon points="13.2165,1.18445,12.1915,2.20843,12.1915,4.99156,13.2165,6.01654" fill="#474747" xmlns="http://www.w3.org/2000/svg"/>
<polygon points="13.2165,6.01654,12.1915,4.99156,9.40846,4.99156,8.38447,6.01654" fill="#595959" xmlns="http://www.w3.org/2000/svg"/>
<polygon points="8.38447,6.01654,9.40846,4.99156,9.40846,2.20843,8.38447,1.18445" fill="#373737" xmlns="http://www.w3.org/2000/svg"/>
<rect x="16.6085" y="2.20843" id="connector2pin" height="2.78312" width="2.78312" fill="none" xmlns="http://www.w3.org/2000/svg"/>
<g x="16.9183" y="2.47054" id="connector2terminal" height="2.25658" width="2.15829" fill="none" xmlns="http://www.w3.org/2000/svg"/>
<rect x="16.6085" y="2.20843" height="2.78312" width="2.78312" xmlns="http://www.w3.org/2000/svg"/>
<polygon points="15.5845,1.18445,16.6085,2.20843,19.3915,2.20843,20.4165,1.18445" fill="#2A2A29" xmlns="http://www.w3.org/2000/svg"/>
<polygon points="20.4165,1.18445,19.3915,2.20843,19.3915,4.99156,20.4165,6.01654" fill="#474747" xmlns="http://www.w3.org/2000/svg"/>
<polygon points="20.4165,6.01654,19.3915,4.99156,16.6085,4.99156,15.5845,6.01654" fill="#595959" xmlns="http://www.w3.org/2000/svg"/>
<polygon points="15.5845,6.01654,16.6085,4.99156,16.6085,2.20843,15.5845,1.18445" fill="#373737" xmlns="http://www.w3.org/2000/svg"/>
<rect x="23.8085" y="2.20843" id="connector3pin" height="2.78312" width="2.78312" fill="none" xmlns="http://www.w3.org/2000/svg"/>
<g x="24.1183" y="2.47054" id="connector3terminal" height="2.25658" width="2.15829" fill="none" xmlns="http://www.w3.org/2000/svg"/>
<rect x="23.8085" y="2.20843" height="2.78312" width="2.78312" xmlns="http://www.w3.org/2000/svg"/>
<polygon points="22.7845,1.18445,23.8085,2.20843,26.5915,2.20843,27.6165,1.18445" fill="#2A2A29" xmlns="http://www.w3.org/2000/svg"/>
<polygon points="27.6165,1.18445,26.5915,2.20843,26.5915,4.99156,27.6165,6.01654" fill="#474747" xmlns="http://www.w3.org/2000/svg"/>
<polygon points="27.6165,6.01654,26.5915,4.99156,23.8085,4.99156,22.7845,6.01654" fill="#595959" xmlns="http://www.w3.org/2000/svg"/>
<polygon points="22.7845,6.01654,23.8085,4.99156,23.8085,2.20843,22.7845,1.18445" fill="#373737" xmlns="http://www.w3.org/2000/svg"/>
</g>
</g></g></g><g partID='854434810'><g transform='translate(449.463,54.3612)' ><g id="breadboard" xmlns="http://www.w3.org/2000/svg">
<rect height="7.2" width="7.2" fill="#404040" xmlns="http://www.w3.org/2000/svg"/>
<rect x="2.20843" y="2.20843" id="connector0pin" height="2.78312" width="2.78312" fill="none" xmlns="http://www.w3.org/2000/svg"/>
<g x="2.51834" y="2.47054" id="connector0terminal" height="2.25658" width="2.15829" fill="none" xmlns="http://www.w3.org/2000/svg"/>
<rect x="2.20843" y="2.20843" height="2.78312" width="2.78312" xmlns="http://www.w3.org/2000/svg"/>
<polygon points="1.18445,1.18445,2.20843,2.20843,4.99156,2.20843,6.01654,1.18445" fill="#2A2A29" xmlns="http://www.w3.org/2000/svg"/>
<polygon points="6.01654,1.18445,4.99156,2.20843,4.99156,4.99156,6.01654,6.01654" fill="#474747" xmlns="http://www.w3.org/2000/svg"/>
<polygon points="6.01654,6.01654,4.99156,4.99156,2.20843,4.99156,1.18445,6.01654" fill="#595959" xmlns="http://www.w3.org/2000/svg"/>
<polygon points="1.18445,6.01654,2.20843,4.99156,2.20843,2.20843,1.18445,1.18445" fill="#373737" xmlns="http://www.w3.org/2000/svg"/>
</g>
</g></g><g partID='854434950'><g transform='translate(435.06,25.5595)' ><g id="breadboard" xmlns="http://www.w3.org/2000/svg">
<polygon points="1.56321,0,0,1.56321,0,5.63578,1.56321,7.2,5.63578,7.2,7.2,5.63578,7.2,1.56321,5.63578,0,1.56321,0" fill="#404040" xmlns="http://www.w3.org/2000/svg"/>
<rect x="2.2043" y="2.2043" id="connector0pin" height="2.79138" width="2.79138" fill="none" xmlns="http://www.w3.org/2000/svg"/>
<g x="2.51834" y="2.46934" id="connector0terminal" height="2.26231" width="2.1643" fill="none" xmlns="http://www.w3.org/2000/svg"/>
<rect x="2.45133" y="2.45133" height="2.29832" width="2.29832" fill="#8D8C8C" xmlns="http://www.w3.org/2000/svg"/>
<rect x="3.00941" y="3.00941" height="1.18216" width="1.18216" fill="#8C8663" xmlns="http://www.w3.org/2000/svg"/>
<polygon points="2.45133,2.45133,3.00941,3.00941,4.19058,3.00941,4.74965,2.45133" fill="#B8AF82" xmlns="http://www.w3.org/2000/svg"/>
<polygon points="4.19058,4.19058,4.19058,3.00941,4.74965,2.45133,4.74965,4.74965" fill="#80795B" xmlns="http://www.w3.org/2000/svg"/>
<polygon points="3.00941,4.19058,4.19058,4.19058,4.74965,4.74965,2.45133,4.74965" fill="#5E5B43" xmlns="http://www.w3.org/2000/svg"/>
<polygon points="2.45133,2.45133,3.00941,3.00941,3.00941,4.19058,2.45133,4.74965" fill="#9A916C" xmlns="http://www.w3.org/2000/svg"/>
</g>
</g></g><g partID='854435210'><g transform='translate(427.863,25.5612)' ><g id="breadboard" xmlns="http://www.w3.org/2000/svg">
<rect height="7.2" width="7.2" fill="#404040" xmlns="http://www.w3.org/2000/svg"/>
<rect x="2.20843" y="2.20843" id="connector0pin" height="2.78312" width="2.78312" fill="none" xmlns="http://www.w3.org/2000/svg"/>
<g x="2.51834" y="2.47054" id="connector0terminal" height="2.25658" width="2.15829" fill="none" xmlns="http://www.w3.org/2000/svg"/>
<rect x="2.20843" y="2.20843" height="2.78312" width="2.78312" xmlns="http://www.w3.org/2000/svg"/>
<polygon points="1.18445,1.18445,2.20843,2.20843,4.99156,2.20843,6.01654,1.18445" fill="#2A2A29" xmlns="http://www.w3.org/2000/svg"/>
<polygon points="6.01654,1.18445,4.99156,2.20843,4.99156,4.99156,6.01654,6.01654" fill="#474747" xmlns="http://www.w3.org/2000/svg"/>
<polygon points="6.01654,6.01654,4.99156,4.99156,2.20843,4.99156,1.18445,6.01654" fill="#595959" xmlns="http://www.w3.org/2000/svg"/>
<polygon points="1.18445,6.01654,2.20843,4.99156,2.20843,2.20843,1.18445,1.18445" fill="#373737" xmlns="http://www.w3.org/2000/svg"/>
</g>
</g></g><g partID='854435480'><g transform='translate(442.263,54.3612)' ><g id="breadboard" xmlns="http://www.w3.org/2000/svg">
<rect height="7.2" width="7.2" fill="#404040" xmlns="http://www.w3.org/2000/svg"/>
<rect x="2.20843" y="2.20843" id="connector0pin" height="2.78312" width="2.78312" fill="none" xmlns="http://www.w3.org/2000/svg"/>
<g x="2.51834" y="2.47054" id="connector0terminal" height="2.25658" width="2.15829" fill="none" xmlns="http://www.w3.org/2000/svg"/>
<rect x="2.20843" y="2.20843" height="2.78312" width="2.78312" xmlns="http://www.w3.org/2000/svg"/>
<polygon points="1.18445,1.18445,2.20843,2.20843,4.99156,2.20843,6.01654,1.18445" fill="#2A2A29" xmlns="http://www.w3.org/2000/svg"/>
<polygon points="6.01654,1.18445,4.99156,2.20843,4.99156,4.99156,6.01654,6.01654" fill="#474747" xmlns="http://www.w3.org/2000/svg"/>
<polygon points="6.01654,6.01654,4.99156,4.99156,2.20843,4.99156,1.18445,6.01654" fill="#595959" xmlns="http://www.w3.org/2000/svg"/>
<polygon points="1.18445,6.01654,2.20843,4.99156,2.20843,2.20843,1.18445,1.18445" fill="#373737" xmlns="http://www.w3.org/2000/svg"/>
</g>
</g></g><g partID='854437830'><g transform='translate(0,11.7)' ><g  id="breadboard">
 <circle  stroke="#9A916C" id="connector0pin" cx="150.66" cy="24.66" r="3.24" fill="none" stroke-width="0.254"/>
 <circle  stroke="#9A916C" id="connector1pin" cx="150.66" cy="61.38" r="3.24" fill="none" stroke-width="0.254"/>
 <g >
  <path  fill="#4D4D4D" d="M0,83.88c0,0.792,0.648,1.44,1.44,1.44l156.824,0c0.791,0,1.439,-0.648,1.439,-1.44L159.703,1.44c0,-0.792,-0.648,-1.44,-1.439,-1.44L1.44,0C0.648,0,0,0.648,0,1.44L0,83.88z"/>
 </g>
 <polygon  points="154.797,69.662,154.797,79.246,145.16,79.246,145.16,85.349,159.703,85.32,159.704,78.984,159.704,69.662" fill="#333333"/>
 <g >
  <g >
   <path  fill="#939393" d="M146.209,67.257L146.209,52.8c0,-0.312,-0.254,-0.564,-0.566,-0.564l-8.219,0c-0.313,0,-0.566,0.255,-0.566,0.564l0,7.229l0,7.229c0,0.313,0.254,0.566,0.566,0.566l8.217,0C145.955,67.823,146.209,67.569,146.209,67.257zM137.52,66.953c-0.306,0,-0.554,-0.248,-0.554,-0.552l0,-6.373l0,-6.373c0,-0.304,0.248,-0.552,0.554,-0.552l8.024,0c0.306,0,0.554,0.248,0.554,0.552l0,12.746c0,0.304,-0.248,0.552,-0.554,0.552L137.52,66.953z"/>
   <path  fill="#B2B2B2" d="M146.096,66.402l0,-6.373l0,-6.373c0,-0.304,-0.248,-0.552,-0.552,-0.552l-8.024,0c-0.306,0,-0.554,0.248,-0.554,0.552l0,6.373l0,6.373c0,0.304,0.248,0.552,0.554,0.552l8.024,0C145.848,66.953,146.096,66.705,146.096,66.402z"/>
   <path  fill="#E6E6E6" d="M146.008,65.156l0,-5.128L146.008,54.9c0,-0.28,-0.229,-0.511,-0.51,-0.511l-7.619,0c-0.281,0,-0.51,0.229,-0.51,0.511l0,3.979c0.094,-0.107,0.23,-0.186,0.395,-0.186l6.867,0c0.281,0,0.51,0.21,0.51,0.466l0,0.866L145.141,62.5c0,0.256,-0.229,0.466,-0.51,0.466l-6.865,0c-0.164,0,-0.303,-0.074,-0.396,-0.186l0,2.374c0,0.28,0.229,0.51,0.51,0.51l7.621,0C145.779,65.666,146.008,65.437,146.008,65.156z"/>
   <path  enable-background="new    " opacity="0.9" fill="#FFFFFF" d="M138.092,57.588c-0.299,0,-0.543,0.199,-0.543,0.442l0,-2.173c0,-0.244,0.244,-0.443,0.543,-0.443l7.277,0c0.299,0,0.541,0.199,0.541,0.443l0,2.173c0,-0.243,-0.242,-0.442,-0.541,-0.442L138.092,57.588z"/>
  </g>
  <g >
   <path  fill="#919191" d="M139.156,49.703c-0.018,0.384,0.672,1.126,0.672,1.126s-0.742,0.365,-0.791,1.012c-0.217,2.889,-0.119,4.328,-0.119,7.215c0,0.391,-0.014,0.813,0.49,0.996c-0.504,0.182,-0.49,0.604,-0.49,0.992c0,2.945,-0.086,4.413,0.137,7.36c0.055,0.715,0.791,1.017,0.791,1.017s-0.719,0.423,-0.699,0.854c0.011,0.519,-0.028,1.007,0.418,1.046c1.734,0.151,2.527,0.295,4.084,0.371c1.322,0.063,1.9,-0.393,3.377,-0.393c1.019,0,2.17,-0.902,2.17,-1.673c0,-2.716,-0.063,-4.073,0.144,-6.79c0.093,-1.206,-0.142,-2.45,-1.229,-2.785c1.088,-0.337,1.322,-1.586,1.232,-2.791c-0.205,-2.716,-0.146,-4.071,-0.146,-6.788c0,-0.769,-1.233,-1.537,-2.17,-1.537c0,0,-2.106,-0.685,-3.676,-0.574c-1.567,0.108,-3.803,0.556,-3.803,0.556C138.908,48.969,139.164,49.519,139.156,49.703z"/>
   <g >
    <path  fill="#F4F4F4" d="M141.488,71.208c-0.252,-0.849,-0.492,-1.445,-0.492,-1.445c1.797,0.175,2.646,0.275,4.164,-0.001c-0.092,0.521,-0.176,1.007,-0.25,1.478C143.609,71.516,142.994,71.304,141.488,71.208z"/>
    <path  fill="#B7B7B7" d="M139.555,70.958c0.038,-0.747,0.643,-1.271,1.44,-1.195c0,0,0.239,0.599,0.491,1.445C140.715,71.158,140.328,71.027,139.555,70.958z"/>
    <path  fill="#999999" d="M144.256,69.865c0.6,-0.015,0.822,-0.095,1.342,-0.188c0.68,-0.121,1.354,0.505,1.406,1.259c-0.926,0,-1.295,0.131,-2.094,0.302C144.91,70.678,144.799,69.853,144.256,69.865z"/>
   </g>
   <g >
    <path  fill="#F4F4F4" d="M140.945,69.001c-0.834,-0.062,-1.543,-0.548,-1.58,-1.063c-0.189,-2.619,-0.102,-3.907,-0.102,-6.509c0,-0.516,0.676,-0.933,1.512,-0.933c0,0,1.416,0.188,2.246,0.188c0.828,0,2.155,-0.188,2.155,-0.188c1.238,0,2.104,0.417,2.074,0.933c-0.146,2.602,-0.239,3.901,-0.239,6.503c0,0.514,-0.707,0.902,-1.416,1.002C143.896,69.166,142.951,69.152,140.945,69.001z"/>
    <g >
     <path  fill="#B7B7B7" d="M139.365,67.937c-0.189,-2.619,-0.102,-3.907,-0.102,-6.509c0,-0.516,0.676,-0.933,1.512,-0.933c0,0,0.119,2.748,0.119,4.409c0,1.786,0.051,4.095,0.051,4.095C140.111,68.939,139.402,68.453,139.365,67.937z"/>
    </g>
    <g >
     <path  fill="#999999" d="M147.012,67.931c0,-2.602,0.094,-3.901,0.239,-6.503c0.028,-0.516,-0.642,-0.933,-1.472,-0.933c-0.245,0,-0.368,0,-0.612,0c-0.396,1.22,-0.644,2.746,-0.644,4.407c-0.002,1.797,0.599,3.009,-0.354,4.171c0.646,0.002,0.879,-0.067,1.427,-0.144C146.305,68.835,147.012,68.445,147.012,67.931z"/>
    </g>
   </g>
   <g >
    <path  fill="#F4F4F4" d="M141.486,48.893c-0.254,0.851,-0.494,1.447,-0.494,1.447c1.797,-0.171,2.648,-0.271,4.168,0c-0.092,-0.52,-0.176,-1.004,-0.25,-1.476C143.609,48.591,142.992,48.795,141.486,48.893z"/>
    <path  fill="#B7B7B7" d="M139.551,49.141c0.037,0.746,0.641,1.275,1.439,1.199c0,0,0.24,-0.599,0.494,-1.447C140.713,48.943,140.326,49.072,139.551,49.141z"/>
    <path  fill="#999999" d="M143.926,50.239c0.715,-0.006,1.037,0.072,1.672,0.184c0.68,0.119,1.354,-0.506,1.406,-1.259c-0.926,0,-1.295,-0.129,-2.094,-0.298C144.91,49.288,144.576,50.235,143.926,50.239z"/>
   </g>
   <g >
    <path  fill="#F4F4F4" d="M140.939,51.102c-0.834,0.062,-1.541,0.546,-1.578,1.062c-0.188,2.617,-0.098,3.907,-0.098,6.507c0,0.517,0.676,0.929,1.512,0.929c0,0,1.521,-0.169,2.434,-0.169c0.914,0,1.969,0.169,1.969,0.169c0.832,0,2.107,-0.412,2.08,-0.929c-0.145,-2.6,-0.244,-3.899,-0.244,-6.501c0,-0.513,-0.707,-0.902,-1.416,-0.999C143.896,50.942,142.945,50.955,140.939,51.102z"/>
    <g >
     <path  fill="#B7B7B7" d="M139.361,52.163c-0.188,2.617,-0.098,3.907,-0.098,6.507c0,0.517,0.676,0.929,1.512,0.929c0,0,0.119,-2.743,0.119,-4.404c0,-1.786,0.045,-4.091,0.045,-4.091C140.105,51.163,139.398,51.648,139.361,52.163z"/>
    </g>
    <g >
     <path  fill="#999999" d="M147.012,52.169c0,2.602,0.102,3.901,0.243,6.501c0.029,0.517,-0.642,0.929,-1.473,0.929c-0.246,0,-0.369,0,-0.615,0c-0.396,-1.22,-0.642,-2.744,-0.644,-4.404c-0.002,-1.796,0.334,-3.2,-0.567,-4.164c0.711,-0.001,1.021,0.059,1.64,0.142C146.305,51.264,147.012,51.656,147.012,52.169z"/>
    </g>
   </g>
  </g>
  <g >
   <g >
    <path  fill="#939393" d="M139.674,16.705l0,14.458c0,0.313,0.256,0.566,0.568,0.566l8.219,0c0.313,0,0.566,-0.256,0.566,-0.566l0,-7.229l0,-7.229c0,-0.312,-0.254,-0.565,-0.566,-0.565l-8.219,0C139.927,16.139,139.674,16.395,139.674,16.705zM148.363,17.009c0.305,0,0.553,0.248,0.553,0.554l0,6.374l0,6.373c0,0.304,-0.248,0.552,-0.553,0.552l-8.025,0c-0.303,0,-0.551,-0.248,-0.551,-0.552L139.787,17.562c0,-0.306,0.248,-0.554,0.551,-0.554L148.363,17.008z"/>
    <path  fill="#B2B2B2" d="M139.787,17.562l0,6.374l0,6.373c0,0.304,0.248,0.552,0.551,0.552l8.025,0c0.305,0,0.553,-0.248,0.553,-0.552l0,-6.373l0,-6.374c0,-0.306,-0.248,-0.554,-0.553,-0.554l-8.025,0C140.035,17.009,139.787,17.257,139.787,17.562z"/>
    <path  fill="#E6E6E6" d="M139.875,18.806l0,5.129l0,5.128c0,0.278,0.23,0.51,0.51,0.51l7.621,0c0.281,0,0.51,-0.229,0.51,-0.51l0,-3.981c-0.094,0.109,-0.231,0.188,-0.396,0.188l-6.865,0c-0.28,0,-0.51,-0.21,-0.51,-0.467l0,-0.865l0,-2.476c0,-0.256,0.229,-0.466,0.51,-0.466l6.865,0c0.164,0,0.303,0.076,0.396,0.187l0,-2.373c0,-0.28,-0.229,-0.512,-0.511,-0.512l-7.618,0C140.104,18.296,139.875,18.527,139.875,18.806z"/>
    <path  enable-background="new    " opacity="0.9" fill="#FFFFFF" d="M147.793,26.375c0.299,0,0.541,-0.198,0.541,-0.44l0,2.173c0,0.244,-0.242,0.441,-0.541,0.441l-7.277,0c-0.299,0,-0.543,-0.197,-0.543,-0.441l0,-2.173c0,0.242,0.244,0.44,0.543,0.44L147.793,26.375z"/>
   </g>
   <rect  x="147.441" y="16.151" height="15.547" enable-background="new    " opacity="0.1" width="1.547"/>
  </g>
  <g >
   <path  fill="#919191" d="M145.773,34.254c0.018,-0.384,-0.674,-1.126,-0.674,-1.126s0.743,-0.364,0.793,-1.012c0.217,-2.887,0.119,-4.328,0.119,-7.214c0,-0.391,0.014,-0.813,-0.49,-0.996c0.504,-0.18,0.49,-0.603,0.49,-0.993c0,-2.946,0.086,-4.414,-0.138,-7.36c-0.054,-0.716,-0.791,-1.018,-0.791,-1.018s0.719,-0.422,0.699,-0.852c-0.011,-0.521,0.028,-1.009,-0.418,-1.047c-1.734,-0.151,-2.527,-0.296,-4.082,-0.37c-1.324,-0.065,-1.902,0.391,-3.38,0.391c-1.018,0,-2.17,0.904,-2.17,1.673c0,2.716,0.063,4.074,-0.143,6.79c-0.092,1.207,0.143,2.452,1.229,2.787c-1.088,0.336,-1.321,1.585,-1.231,2.791c0.205,2.715,0.146,4.072,0.146,6.788c0,0.768,1.234,1.538,2.172,1.538c0,0,2.105,0.683,3.675,0.573c1.569,-0.108,3.801,-0.557,3.801,-0.557C146.021,34.988,145.766,34.439,145.773,34.254z"/>
   <g >
    <path  fill="#F4F4F4" d="M143.441,12.748c0.252,0.85,0.49,1.446,0.49,1.446c-1.798,-0.174,-2.646,-0.276,-4.162,0.001c0.092,-0.521,0.176,-1.006,0.25,-1.479C141.32,12.442,141.934,12.653,143.441,12.748z"/>
    <path  fill="#B7B7B7" d="M145.375,12.998c-0.039,0.747,-0.643,1.273,-1.441,1.196c0,0,-0.24,-0.599,-0.492,-1.446C144.215,12.798,144.6,12.93,145.375,12.998z"/>
    <path  fill="#999999" d="M140.674,14.091c-0.6,0.017,-0.822,0.097,-1.342,0.188c-0.68,0.121,-1.354,-0.505,-1.406,-1.258c0.926,0,1.295,-0.131,2.096,-0.303C140.02,13.279,140.131,14.105,140.674,14.091z"/>
   </g>
   <g >
    <path  fill="#F4F4F4" d="M143.984,14.955c0.834,0.063,1.543,0.548,1.58,1.064c0.188,2.618,0.1,3.905,0.1,6.508c0,0.515,-0.674,0.932,-1.51,0.932c0,0,-1.416,-0.187,-2.246,-0.187s-2.156,0.187,-2.156,0.187c-1.24,0,-2.104,-0.417,-2.076,-0.932c0.148,-2.603,0.24,-3.903,0.24,-6.503c0,-0.514,0.707,-0.903,1.416,-1.001C141.033,14.79,141.979,14.805,143.984,14.955z"/>
    <g >
     <path  fill="#B7B7B7" d="M145.564,16.021c0.188,2.618,0.1,3.906,0.1,6.508c0,0.515,-0.674,0.932,-1.51,0.932c0,0,-0.119,-2.749,-0.119,-4.409c0,-1.785,-0.051,-4.096,-0.051,-4.096C144.818,15.019,145.527,15.503,145.564,16.021z"/>
    </g>
    <g >
     <path  fill="#999999" d="M137.916,16.026c0,2.601,-0.092,3.901,-0.24,6.503c-0.027,0.515,0.643,0.932,1.473,0.932c0.244,0,0.367,0,0.613,0c0.396,-1.22,0.643,-2.747,0.643,-4.407c0.003,-1.798,-0.6,-3.01,0.355,-4.172c-0.645,-0.002,-0.879,0.067,-1.428,0.145C138.623,15.121,137.916,15.512,137.916,16.026z"/>
    </g>
   </g>
   <g >
    <path  fill="#F4F4F4" d="M143.443,35.065c0.254,-0.853,0.494,-1.449,0.494,-1.449c-1.797,0.171,-2.65,0.271,-4.168,0c0.092,0.521,0.176,1.004,0.25,1.476C141.32,35.366,141.938,35.162,143.443,35.065z"/>
    <path  fill="#B7B7B7" d="M145.377,34.817c-0.037,-0.747,-0.639,-1.277,-1.438,-1.201c0,0,-0.24,0.599,-0.494,1.449C144.217,35.014,144.604,34.885,145.377,34.817z"/>
    <path  fill="#999999" d="M141.004,33.719c-0.715,0.006,-1.037,-0.071,-1.672,-0.185c-0.68,-0.119,-1.354,0.506,-1.406,1.259c0.926,0,1.295,0.129,2.096,0.298C140.02,34.669,140.354,33.722,141.004,33.719z"/>
   </g>
   <g >
    <path  fill="#F4F4F4" d="M143.99,32.856c0.834,-0.063,1.541,-0.546,1.578,-1.063c0.186,-2.616,0.096,-3.906,0.096,-6.507c0,-0.515,-0.674,-0.928,-1.51,-0.928c0,0,-1.521,0.169,-2.437,0.169c-0.911,0,-1.967,-0.169,-1.967,-0.169c-0.832,0,-2.108,0.413,-2.08,0.928c0.146,2.601,0.244,3.901,0.244,6.501c0,0.513,0.707,0.904,1.416,0.999C141.033,33.016,141.984,33.002,143.99,32.856z"/>
    <g >
     <path  fill="#B7B7B7" d="M145.568,31.794c0.186,-2.616,0.096,-3.906,0.096,-6.507c0,-0.515,-0.674,-0.928,-1.51,-0.928c0,0,-0.119,2.744,-0.119,4.404c0,1.785,-0.045,4.092,-0.045,4.092C144.824,32.794,145.531,32.31,145.568,31.794z"/>
    </g>
    <g >
     <path  fill="#999999" d="M137.916,31.788c0,-2.6,-0.1,-3.9,-0.244,-6.501c-0.027,-0.515,0.643,-0.928,1.475,-0.928c0.244,0,0.367,0,0.613,0c0.396,1.219,0.643,2.745,0.645,4.404c0.003,1.797,-0.334,3.199,0.566,4.164c-0.711,0.001,-1.018,-0.06,-1.639,-0.143C138.623,32.693,137.916,32.302,137.916,31.788z"/>
    </g>
   </g>
  </g>
  <g >
   <path  fill="#353535" d="M137.754,73.465c0,1.985,-1.703,4.536,-3.783,4.536L6.308,78.001c-2.545,0,-4.627,-2.551,-4.627,-5.67L1.681,12.803c0,-3.117,2.082,-5.67,4.627,-5.67l127.661,0c2.082,0,3.783,2.553,3.783,6.804l0,59.527L137.754,73.464z"/>
   <path  fill="#D18D52" d="M104.158,78.001L104.158,7.134l29.811,0c2.08,0,3.783,2.553,3.783,6.804l0,59.527c0,1.985,-1.703,4.536,-3.783,4.536L104.158,78.001z"/>
  </g>
  <path  enable-background="new    " opacity="0.15" d="M4.548,76.737c-0.575,0,-1.067,-1.594,-1.237,-3.783l132.351,0.001c-0.139,2.189,-0.541,3.783,-1.012,3.783L4.548,76.737z"/>
  <path  enable-background="new    " opacity="0.29" fill="#FFFFFF" d="M4.57,8.279c-0.575,0,-1.067,1.594,-1.237,3.783l132.33,0c-0.14,-2.189,-0.541,-3.783,-1.013,-3.783L4.57,8.279z"/>
  <path  enable-background="new    " opacity="0.35" d="M134.662,8.279c0.586,0,1.064,2.464,1.064,5.477l0,57.508c0,3.014,-0.479,5.478,-1.064,5.478l0.217,0c1.053,0,1.914,-2.464,1.914,-5.478l0,-57.51c0,-3.013,-0.861,-5.477,-1.914,-5.477L134.662,8.279L134.662,8.279z"/>
  <g  opacity="0.4">
   <path  d="M135.031,76.738c0,0,-128.895,-0.001,-130.53,-0.001c0.297,0.629,0.297,0.629,0.646,1c0.625,0,126.219,0.001,126.68,0.001C133.82,77.738,134.389,77.031,135.031,76.738z"/>
  </g>
  <g  opacity="0.2">
   <path  fill="#FFFFFF" d="M134.65,8.279c0,0,-128.446,0,-130.082,0c0.297,-0.628,0.63,-0.971,1.266,-1.146c0.625,0,126.22,0,126.681,0C133.969,7.134,134.65,8.066,134.65,8.279z"/>
  </g>
  <g >
   <rect  x="139.137" y="52.517" height="15.547" width="1.547" fill="none"/>
   <path  fill="#353535" d="M3.92,13.055l0,0.061c0,-0.1,0.008,-0.195,0.012,-0.293C3.927,12.901,3.92,12.977,3.92,13.055z"/>
   <path  fill="#353535" d="M3.945,12.496c0,-0.021,0.004,-0.041,0.006,-0.062C3.949,12.455,3.945,12.477,3.945,12.496z"/>
   <path  enable-background="new    " opacity="0.35" d="M3.931,12.823c0.004,-0.108,0.004,-0.219,0.014,-0.325C3.937,12.604,3.935,12.712,3.931,12.823z"/>
   <rect  x="136.896" y="52.266" height="15.547" width="1.547" fill="none"/>
   <rect  x="136.896" y="12.516" height="22.592" enable-background="new    " opacity="0.1" width="1.547"/>
   <path  fill="#353535" d="M1.68,12.803l0,0.061c0,-0.1,0.008,-0.195,0.011,-0.293C1.688,12.649,1.68,12.725,1.68,12.803z"/>
   <path  fill="#353535" d="M1.704,12.244c0.001,-0.021,0.004,-0.041,0.006,-0.062C1.708,12.203,1.705,12.225,1.704,12.244z"/>
   <path  enable-background="new    " opacity="0.35" d="M1.691,12.571c0.004,-0.108,0.005,-0.219,0.014,-0.325C1.697,12.352,1.695,12.46,1.691,12.571z"/>
   <path  fill="#353535" d="M5.3,77.86c-0.896,-0.605,-1.565,-2.842,-1.565,-5.498l0,-59.5c0,-3.117,0.924,-5.666,2.052,-5.666L5.662,7.196c-2.076,0.359,-3.721,2.42,-3.951,4.986c-0.002,0.021,-0.005,0.04,-0.006,0.062c-0.009,0.106,-0.01,0.217,-0.014,0.325c-0.003,0.098,-0.011,0.193,-0.011,0.293L1.68,72.33C1.68,75.026,3.237,77.292,5.3,77.86z"/>
   <path  enable-background="new    " opacity="0.34" d="M5.3,77.86c-0.896,-0.605,-1.565,-2.842,-1.565,-5.498l0,-59.5c0,-3.117,0.924,-5.666,2.052,-5.666L5.662,7.196c-2.076,0.359,-3.721,2.42,-3.951,4.986c-0.002,0.021,-0.005,0.04,-0.006,0.062c-0.009,0.106,-0.01,0.217,-0.014,0.325c-0.003,0.098,-0.011,0.193,-0.011,0.293L1.68,72.33C1.68,75.026,3.237,77.292,5.3,77.86z"/>
   <path  stroke="#000000" fill="none" d="M148.516,74.886c-0.222,14.56,7.94,8.474,8.108,-2.489" stroke-width="2"/>
   <path  stroke="#FF0000" fill="none" d="M150.094,74.845c0,11.895,8.489,4.194,8.489,-2.314" stroke-width="2"/>
   <path  fill="#262626" d="M146.635,74.886c0,0,3.563,0,4.48,0c1.699,0,2.436,-1.166,2.436,-6.258L153.551,16.488c0,-5.091,-0.736,-6.257,-2.436,-6.257c-0.918,0,-4.48,0,-4.48,0L146.635,74.886z"/>
   <path  enable-background="new    " opacity="0.35" fill="#FFFFFF" d="M152.986,69.901c0,3.608,-0.861,4.257,-1.914,4.257l-0.217,0c0.586,0,1.063,-1.447,1.063,-4.257L151.918,15.215c0,-2.81,-0.479,-4.257,-1.063,-4.257l0.217,0c1.053,0,1.914,0.647,1.914,4.257L152.986,69.901z"/>
   <path  enable-background="new    " opacity="0.15" fill="#FFFFFF" d="M151.736,12.719c-0.188,-1.151,-0.51,-1.762,-0.881,-1.762l-3.818,0l0,1.762L151.736,12.719z"/>
   <path  enable-background="new    " opacity="0.15" fill="#FFFFFF" d="M151.736,72.397c-0.188,1.15,-0.51,1.761,-0.881,1.761l-3.818,0l0,-1.761L151.736,72.397z"/>
   <g >
    <g transform="matrix(-4.37114e-08, 1, -1, -4.37114e-08, 77.6133, 29.7737)">
     <text  font-size="22" font-family="'OCRA'" fill="#FFFFFF">9</text>
    </g>
    <g transform="matrix(-4.37114e-08, 1, -1, -4.37114e-08, 77.6133, 43.7107)">
     <text  font-size="22" font-family="'OCRA'" fill="#FFFFFF">v</text>
    </g>
    <g transform="matrix(-4.37114e-08, 1, -1, -4.37114e-08, 114.195, 16.0623)">
     <text  font-size="22" font-family="'OCRA'" fill="#FFFFFF">+</text>
    </g>
    <g transform="matrix(-4.37114e-08, 1, -1, -4.37114e-08, 115.117, 53.6169)">
     <text  font-size="22" font-family="'OCRA'" fill="#FFFFFF">-</text>
    </g>
   </g>
  </g>
 </g>
 <g >
  <path  fill="#1A1A1A" d="M1.439,0c-0.792,0,-1.44,0.648,-1.44,1.44l0,82.469c0,0.792,0.648,1.44,1.44,1.44L144.65,85.349c0.793,0,1.44,-0.648,1.44,-1.44l0,-3.274c0,-0.793,-0.647,-1.44,-1.44,-1.44L3.146,79.195c-0.792,0,-1.44,-0.648,-1.44,-1.44L1.706,67.506c0,-0.792,0.648,-1.439,1.44,-1.439l3.765,0c0.792,0,1.44,-0.648,1.44,-1.44l0,-7.351c0,-0.792,-0.648,-1.44,-1.44,-1.44L3.146,55.836c-0.792,0,-1.44,-0.647,-1.44,-1.439L1.706,30.927c0,-0.793,0.648,-1.44,1.44,-1.44l3.765,0c0.792,0,1.44,-0.648,1.44,-1.44l0,-7.352c0,-0.792,-0.648,-1.44,-1.44,-1.44L3.146,19.255c-0.792,0,-1.44,-0.647,-1.44,-1.439L1.706,7.596c0,-0.792,0.648,-1.44,1.44,-1.44l150.209,0c0.793,0,1.44,0.648,1.44,1.44l0,63.494c0,0.792,0.647,1.44,1.44,1.44l2.025,0c0.791,0,1.439,-0.648,1.439,-1.44L159.699,1.44c0,-0.792,-0.648,-1.44,-1.439,-1.44L1.439,0z"/>
 </g>
 <g >
  <path  enable-background="new    " opacity="0.25" fill="#FFFFFF" d="M145.91,79.923L1.706,79.923L1.706,77.86c0,0.597,0.636,1.343,1.558,1.343c0,0,140.946,0,141.541,0C145.398,79.203,145.729,79.685,145.91,79.923z"/>
  <path  enable-background="new    " opacity="0.25" fill="#FFFFFF" d="M145.605,79.562L1.706,79.562L1.706,77.86c0,0.644,0.723,1.347,1.426,1.343c0,0,141.173,0,141.673,0S145.605,79.562,145.605,79.562z"/>
 </g>
 <g  opacity="0.25">
  <path  fill="#FFFFFF" d="M158.262,0L1.8,0C1.008,0,0.279,0,0.18,0C0.081,0,0,0.081,0,0.179c0,0.1,0,0.828,0,1.62l0,82.109c0.01,0.393,0.053,0.569,0.36,0.938L0.36,1.8c0,-0.792,0.648,-1.439,1.44,-1.439l157.411,0C158.945,0.113,158.617,0,158.262,0z"/>
 </g>
 <g  opacity="0.25">
  <path  fill="#FFFFFF" d="M158.262,0L2.16,0c-0.792,0,-1.602,0,-1.8,0C0.162,0,0,0.162,0,0.36s0,1.008,0,1.8L0,83.7c-0.055,0.694,0.36,1.315,0.72,1.444L0.72,2.16c0,-0.792,0.648,-1.439,1.44,-1.439l157.332,0C159.367,0.41,158.898,0,158.262,0z"/>
 </g>
 <g  opacity="0.41">
  <path  d="M1.436,85.32l156.103,0c0.792,0,1.602,0,1.8,0s0.36,-0.162,0.36,-0.36c0,-0.197,0,-1.008,0,-1.8L159.699,1.62c0.055,-0.693,-0.36,-1.314,-0.721,-1.443L158.978,83.16c0,0.792,-0.647,1.439,-1.439,1.439L0.726,84.599C0.72,85.144,0.726,85.32,1.436,85.32z"/>
 </g>
 <rect  x="3.332" y="19.255" height="10.231" enable-background="new    " opacity="0.15" width="2.454" fill="#FFFFFF"/>
 <rect  x="4.559" y="19.255" height="10.231" enable-background="new    " opacity="0.15" width="2.454" fill="#FFFFFF"/>
 <rect  x="3.332" y="55.839" height="10.231" enable-background="new    " opacity="0.15" width="2.454" fill="#FFFFFF"/>
 <rect  x="4.559" y="55.839" height="10.231" enable-background="new    " opacity="0.15" width="2.454" fill="#FFFFFF"/>
</g>
</g></g><g partID='854440200'><g transform='translate(370.26,145.44)' ><g transform='matrix(-1,0,0,-1,0,0)'  ><g id="breadboard" xmlns="http://www.w3.org/2000/svg">
<rect x="0" y="0" id="middle" height="19.44" width="43.2" fill="#303030" xmlns="http://www.w3.org/2000/svg"/>
<rect x="0" y="0" id="top" height="1.7712" width="43.2" fill="#3D3D3D" xmlns="http://www.w3.org/2000/svg"/>
<rect x="0" y="17.6688" id="bottom" height="1.7712" width="43.2" fill="#000000" xmlns="http://www.w3.org/2000/svg"/>
<polygon points="43.2,0,42.66,1.7712,42.66,17.6688,43.2,19.44" id="right" fill="#141414" xmlns="http://www.w3.org/2000/svg"/>
<polygon points="0,0,0.54,1.7712,0.54,17.6688,0,19.44" id="left" fill="#1F1F1F" xmlns="http://www.w3.org/2000/svg"/>
<polygon points="3.6,6.12,0.54,6.0912,0.4032,7.6176,0.4032,9.72,3.6,9.72" id="left-upper-rect" fill="#1C1C1C" xmlns="http://www.w3.org/2000/svg"/>
<polygon points="0.54,13.356,3.6,13.356,3.6,9.72,0.4032,9.72,0.4032,11.8224" id="left-lower-rect" fill="#383838" xmlns="http://www.w3.org/2000/svg"/>
<path id="slot" fill="#262626" d="M0.4032,7.6176l0,4.1976c1.0584,-0.1224,1.8864,-1.008,1.8864,-2.1024C2.2896,8.6184,1.4688,7.74,0.4032,7.6176z" xmlns="http://www.w3.org/2000/svg"/>
<path id="cover" fill="#303030" d="M0.54,1.7712L0.54,6.084c1.7136,0.324,3.0168,1.8216,3.0168,3.6288c0,1.8072,-1.296,3.312,-3.0168,3.636L0.54,13.356l3.6,0L4.14,1.7712L0.54,1.7712z" xmlns="http://www.w3.org/2000/svg"/>
<circle cx="4.68" cy="14.7384" r="1.4832" fill="#212121" xmlns="http://www.w3.org/2000/svg"/>
<text x="4.68" stroke="none" text-anchor="start" y="10.8" id="label" font-size="5.76" font-family="OCRA" fill="#e6e6e6" xmlns="http://www.w3.org/2000/svg">BUCK-PUCK</text>
<rect x="2.52" y="18.4752" id="connector0pin" height="3.1248" width="2.16" fill="#8C8C8C" xmlns="http://www.w3.org/2000/svg"/>
<g x="2.52" y="19.44" id="connector0terminal" height="2.16" width="2.16" fill="#8C8C8C" xmlns="http://www.w3.org/2000/svg"/>
<polygon points="2.52,18.4752,2.52,19.9152,4.68,19.9152,6.12,19.2528,6.12,18.4752" fill="#8C8C8C" xmlns="http://www.w3.org/2000/svg"/>
<rect x="38.52" y="18.4752" id="connector5pin" height="3.1248" width="2.16" fill="#8C8C8C" xmlns="http://www.w3.org/2000/svg"/>
<g x="38.52" y="19.44" id="connector5terminal" height="2.16" width="2.16" fill="#8C8C8C" xmlns="http://www.w3.org/2000/svg"/>
<polygon points="37.08,18.4752,37.08,19.2528,38.52,19.9152,40.68,19.9152,40.68,18.4752" fill="#8C8C8C" xmlns="http://www.w3.org/2000/svg"/>
<rect x="9.72" y="18.4752" id="connector1pin" height="3.1248" width="2.16" fill="#8C8C8C" xmlns="http://www.w3.org/2000/svg"/>
<g x="9.72" y="19.44" id="connector1terminal" height="2.16" width="2.16" fill="#8C8C8C" xmlns="http://www.w3.org/2000/svg"/>
<polygon points="8.28,18.4752,8.28,19.2528,9.72,19.9152,11.88,19.9152,13.32,19.2528,13.32,18.4752" fill="#8C8C8C" xmlns="http://www.w3.org/2000/svg"/>
<rect x="16.92" y="18.4752" id="connector2pin" height="3.1248" width="2.16" fill="#8C8C8C" xmlns="http://www.w3.org/2000/svg"/>
<g x="16.92" y="19.44" id="connector2terminal" height="2.16" width="2.16" fill="#8C8C8C" xmlns="http://www.w3.org/2000/svg"/>
<polygon points="15.48,18.4752,15.48,19.2528,16.92,19.9152,19.08,19.9152,20.52,19.2528,20.52,18.4752" fill="#8C8C8C" xmlns="http://www.w3.org/2000/svg"/>
<rect x="24.12" y="18.4752" id="connector3pin" height="3.1248" width="2.16" fill="#8C8C8C" xmlns="http://www.w3.org/2000/svg"/>
<g x="24.12" y="19.44" id="connector3terminal" height="2.16" width="2.16" fill="#8C8C8C" xmlns="http://www.w3.org/2000/svg"/>
<polygon points="22.68,18.4752,22.68,19.2528,24.12,19.9152,26.28,19.9152,27.72,19.2528,27.72,18.4752" fill="#8C8C8C" xmlns="http://www.w3.org/2000/svg"/>
<rect x="31.32" y="18.4752" id="connector4pin" height="3.1248" width="2.16" fill="#8C8C8C" xmlns="http://www.w3.org/2000/svg"/>
<g x="31.32" y="19.44" id="connector4terminal" height="2.16" width="2.16" fill="#8C8C8C" xmlns="http://www.w3.org/2000/svg"/>
<polygon points="29.88,18.4752,29.88,19.2528,31.32,19.9152,33.48,19.9152,34.92,19.2528,34.92,18.4752" fill="#8C8C8C" xmlns="http://www.w3.org/2000/svg"/>
</g>
</g></g></g><g partID='854441170'><g transform='translate(240.48,9.87201)' ><g  id="breadboard">
 <circle  id="connector0pin" cx="3.78" cy="26.488" r="2.052" fill="none"/>
 <circle  id="connector1pin" cx="10.98" cy="26.488" r="2.052" fill="none"/>
 <circle  id="connector2pin" cx="18.18" cy="26.488" r="2.052" fill="none"/>
 <path  stroke="#F8F8F8" stroke-linecap="round" fill="none" d="M0.18,16.408" stroke-width="0.127"/>
 <g >
  <path  fill="#808080" d="M17.832,27.238l1.051,0l0,-8l-1.051,0L17.832,27.238z"/>
 </g>
 <g >
  <path  fill="#808080" d="M10.62,27.238l1.051,0l0,-8L10.62,19.238L10.62,27.238z"/>
 </g>
 <g >
  <path  fill="#808080" d="M3.415,27.269l1.051,0l0,-8l-1.05,0L3.415,27.269L3.415,27.269z"/>
 </g>
 <g >
  <path  fill="#B3B3B3" d="M17.71,27.238l1.051,0l0,-8L17.71,19.238L17.71,27.238z"/>
 </g>
 <g >
  <path  fill="#B3B3B3" d="M10.499,27.238l1.051,0l0,-8L10.5,19.238L10.499,27.238L10.499,27.238z"/>
 </g>
 <g >
  <path  fill="#B3B3B3" d="M3.294,27.269l1.051,0l0,-8l-1.05,0L3.294,27.269L3.294,27.269z"/>
 </g>
 <g >
  <rect  x="4.013" y="1.566" height="15.93" width="14.492" fill="#999999"/>
  <polygon  points="16.818,8.652,12.181,8.652,12.181,4.014,9.995,4.014,9.995,8.652,5.357,8.652,5.357,10.837,9.995,10.837,9.995,15.476,12.181,15.476,12.181,10.837,16.818,10.837" fill="#333333"/>
  <polygon  points="5.357,8.652,9.995,8.652,9.995,4.014,10.511,4.014,10.511,9.189,5.357,9.189" fill="#1A1A1A"/>
  <polygon  points="9.995,10.837,9.995,14.839,10.511,14.839,10.511,11.481" fill="#1A1A1A"/>
  <polygon  points="12.179,8.655,16.039,8.655,16.039,9.171,12.679,9.171" fill="#1A1A1A"/>
  <path  fill="#3250BE" d="M0,-0.048l0,19.583l22.175,0L22.175,-0.048L0,-0.048zM11.088,14.286c-2.509,0,-4.542,-2.033,-4.542,-4.542c0,-2.51,2.033,-4.542,4.542,-4.542c2.509,0,4.542,2.032,4.542,4.542C15.63,12.253,13.597,14.286,11.088,14.286z"/>
  <circle  cx="2.161" cy="15.242" r="0.42" fill="#E6E6E6"/>
  <circle  cx="2.161" cy="15.242" r="0.42" fill="#E6E6E6"/>
  <circle  cx="2.162" cy="15.242" r="0.42" fill="#B3B3B3"/>
  <path  fill="#E6E6E6" d="M1.865,15.54c-0.165,-0.164,-0.164,-0.431,0,-0.595c0.164,-0.164,0.429,-0.164,0.594,0c0.164,0.164,-0.218,-0.306,-0.511,0.097C1.647,15.452,2.028,15.704,1.865,15.54z"/>
  <path  fill="#808080" d="M2.458,14.946c0.165,0.164,0.164,0.431,0,0.595s-0.429,0.164,-0.594,0c-0.163,-0.163,0.219,0.306,0.512,-0.096C2.676,15.033,2.295,14.781,2.458,14.946z"/>
  <circle  cx="8.043" cy="6.622" r="0.42" fill="#333333"/>
  <circle  cx="14.208" cy="6.622" r="0.42" fill="#333333"/>
  <g >
   <path  fill="#263C8F" d="M7.624,6.838L5.541,5.444L4.984,6.275L7.069,7.67C7.224,7.371,7.409,7.094,7.624,6.838z"/>
   <path  fill="#263C8F" d="M11.088,5.202c0.157,0,0.305,0.03,0.458,0.046l-0.035,-3.684l-1,0.011l0.035,3.682C10.726,5.236,10.902,5.202,11.088,5.202z"/>
   <path  fill="#263C8F" d="M9.295,5.573L8.148,3.545l-0.87,0.492L8.43,6.075C8.7,5.879,8.985,5.706,9.295,5.573z"/>
   <path  fill="#263C8F" d="M15.63,9.744c0,0.042,-0.012,0.079,-0.014,0.122l2.461,-0.216l-0.09,-0.996l-2.445,0.215C15.597,9.153,15.63,9.445,15.63,9.744z"/>
   <path  fill="#263C8F" d="M13.683,6.024l1.092,-2.001l-0.879,-0.479l-1.09,1.999C13.117,5.671,13.41,5.833,13.683,6.024z"/>
   <path  fill="#263C8F" d="M15.115,7.687l1.949,-1.295l-0.553,-0.833l-1.949,1.294C14.777,7.109,14.962,7.386,15.115,7.687z"/>
   <path  fill="#263C8F" d="M15.068,11.892l2.551,1.021l0.369,-0.929l-2.545,-1.021C15.351,11.29,15.226,11.599,15.068,11.892z"/>
   <path  fill="#263C8F" d="M13.785,13.382l2.965,3.179l0.729,-0.684l-2.967,-3.181C14.294,12.951,14.054,13.183,13.785,13.382z"/>
   <path  fill="#263C8F" d="M7.646,12.678L5.55,14.9l0.728,0.686l2.095,-2.219C8.104,13.164,7.864,12.934,7.646,12.678z"/>
   <path  fill="#263C8F" d="M6.546,9.744c0,-0.316,0.033,-0.625,0.095,-0.925L3.99,8.56L3.893,9.554l2.661,0.263C6.553,9.792,6.546,9.77,6.546,9.744z"/>
   <path  fill="#263C8F" d="M6.708,10.883l-2.694,1.021l0.354,0.937l2.701,-1.021C6.915,11.522,6.792,11.211,6.708,10.883z"/>
  </g>
  <polygon  points="12.316,10.982,16.529,10.964,16.529,10.837,12.181,10.837,12.181,14.628,12.306,14.628" fill="#CCCCCC"/>
  <path  fill="#263C8F" d="M11.088,3.976c-3.187,0,-5.77,2.583,-5.77,5.771c0,3.188,2.583,5.771,5.77,5.771s5.769,-2.583,5.769,-5.771S14.273,3.976,11.088,3.976zM11.088,14.286c-2.509,0,-4.542,-2.033,-4.542,-4.542c0,-2.51,2.033,-4.542,4.542,-4.542c2.509,0,4.542,2.032,4.542,4.542C15.63,12.253,13.597,14.286,11.088,14.286z"/>
  <g  opacity="0.32">
   <path  stroke="#000000" fill="none" d="M14.644,14.145l-0.078,0.063c-1.006,0.785,-2.209,1.199,-3.478,1.199c-1.282,0,-2.494,-0.421,-3.503,-1.219l-0.078,-0.063l-1.234,1.31l-0.57,-0.538l1.234,-1.309l-0.066,-0.073c-0.35,-0.394,-0.644,-0.83,-0.873,-1.304l-0.043,-0.089L4.43,12.698l-0.278,-0.732l1.521,-0.575l-0.027,-0.096c-0.146,-0.516,-0.22,-1.034,-0.22,-1.55L5.426,9.648L5.332,9.587l-1.321,-0.13l0.077,-0.779l1.418,0.141l0.018,-0.099c0.11,-0.604,0.312,-1.174,0.598,-1.693L6.169,6.94L5.134,6.245L5.57,5.594l1.037,0.693l0.062,-0.078C7.018,5.776,7.425,5.396,7.88,5.081l0.081,-0.057L7.425,4.078l0.682,-0.387L8.644,4.64l0.09,-0.04c0.578,-0.267,1.188,-0.432,1.81,-0.49l0.099,-0.009L10.62,1.683l0.784,-0.01l0.023,2.424l0.099,0.009c0.638,0.049,1.253,0.202,1.829,0.453l0.09,0.04l0.494,-0.906l0.689,0.374l-0.496,0.907l0.084,0.055c0.492,0.328,0.932,0.729,1.303,1.201l0.064,0.078l0.898,-0.6l0.436,0.652l-0.9,0.596l0.049,0.087c0.287,0.529,0.488,1.115,0.598,1.735l0.02,0.099l1.213,-0.104l0.066,0.78L16.75,9.659l-0.002,0.098c0,0.56,-0.082,1.11,-0.246,1.642l-0.029,0.096l1.377,0.551l-0.291,0.729l-1.381,-0.553l-0.045,0.088c-0.225,0.44,-0.51,0.854,-0.85,1.229l-0.066,0.072l2.111,2.263l-0.574,0.536L14.644,14.145z" stroke-width="0.2"/>
  </g>
  <g transform="matrix(1, 0, 0, 1, 2.0679, 18.7449)">
   <text  font-size="4" font-family="'Arial-BoldMT'" fill="#263C8F">1 3362u</text>
  </g>
  <path  enable-background="new    " opacity="0.35" d="M6.858,10.101c0,-2.511,2.033,-4.542,4.542,-4.542c0.939,0,2.227,0.42,2.227,0.42c-0.725,-0.49,-1.6,-0.775,-2.539,-0.775c-2.509,0,-4.542,2.032,-4.542,4.542c0,0.655,0.139,1.279,0.39,1.844C6.936,11.588,6.858,10.756,6.858,10.101z"/>
 </g>
 <rect  y="19.536" height="6.487" width="22.175" fill="#131E48"/>
 <rect  y="19.025" height="1.054" enable-background="new    " opacity="0.18" width="22.175" fill="#FFFFFF"/>
</g>
</g></g><g partID='854430430'><line stroke-linecap='round' stroke='#1b5bb3' x1='431.46' y1='36.36' x2='355.5' y2='10.8' stroke-width='3.2' /><line stroke-linecap='round' stroke='#418dd9' x1='431.46' y1='36.36' x2='355.5' y2='10.8' stroke-width='1.6' /></g><g partID='854430500'><line stroke-linecap='round' stroke='#00a527' x1='431.46' y1='43.56' x2='324.18' y2='10.8' stroke-width='3.2' /><line stroke-linecap='round' stroke='#25cc35' x1='431.46' y1='43.56' x2='324.18' y2='10.8' stroke-width='1.6' /></g><g partID='854430570'><line stroke-linecap='round' stroke='#8c0000' x1='431.46' y1='50.76' x2='370.836' y2='37.8' stroke-width='3.2' /><line stroke-linecap='round' stroke='#cc1414' x1='431.46' y1='50.76' x2='370.836' y2='37.8' stroke-width='1.6' /></g><g partID='854430640'><line stroke-linecap='round' stroke='#ad6a38' x1='553.86' y1='50.76' x2='543.095' y2='32.114' stroke-width='3.2' /><line stroke-linecap='round' stroke='#ef6100' x1='553.86' y1='50.76' x2='543.095' y2='32.114' stroke-width='1.6' /></g><g partID='854430780'><line stroke-linecap='round' stroke='#ad6a38' x1='543.096' y1='69.407' x2='553.86' y2='50.76' stroke-width='3.2' /><line stroke-linecap='round' stroke='#ef6100' x1='543.096' y1='69.407' x2='553.86' y2='50.76' stroke-width='1.6' /></g><g partID='854433940'><line stroke-linecap='round' stroke='#000000' x1='431.46' y1='57.96' x2='339.66' y2='47.88' stroke-width='3.2' /><line stroke-linecap='round' stroke='#404040' x1='431.46' y1='57.96' x2='339.66' y2='47.88' stroke-width='1.6' /></g><g partID='854435880'><line stroke-linecap='round' stroke='#8c0000' x1='521.566' y1='69.408' x2='453.06' y2='50.76' stroke-width='3.2' /><line stroke-linecap='round' stroke='#cc1414' x1='521.566' y1='69.408' x2='453.06' y2='50.76' stroke-width='1.6' /></g><g partID='854435950'><line stroke-linecap='round' stroke='#00a527' x1='510.798' y1='50.7605' x2='453.06' y2='43.56' stroke-width='3.2' /><line stroke-linecap='round' stroke='#25cc35' x1='510.798' y1='50.7605' x2='453.06' y2='43.56' stroke-width='1.6' /></g><g partID='854436020'><line stroke-linecap='round' stroke='#1b5bb3' x1='521.563' y1='32.115' x2='453.06' y2='36.36' stroke-width='3.2' /><line stroke-linecap='round' stroke='#418dd9' x1='521.563' y1='32.115' x2='453.06' y2='36.36' stroke-width='1.6' /></g><g partID='854436090'><line stroke-linecap='round' stroke='#ad6a38' x1='453.06' y1='29.16' x2='532.483' y2='21.924' stroke-width='3.2' /><line stroke-linecap='round' stroke='#ef6100' x1='453.06' y1='29.16' x2='532.483' y2='21.924' stroke-width='1.6' /></g><g partID='854437450'><line stroke-linecap='round' stroke='#ad6a38' x1='532.483' y1='21.924' x2='543.095' y2='32.114' stroke-width='3.2' /><line stroke-linecap='round' stroke='#ef6100' x1='532.483' y1='21.924' x2='543.095' y2='32.114' stroke-width='1.6' /></g><g partID='854440300'><line stroke-linecap='round' stroke='#666666' x1='251.46' y1='36.36' x2='352.26' y2='124.92' stroke-width='3.2' /><line stroke-linecap='round' stroke='#999999' x1='251.46' y1='36.36' x2='352.26' y2='124.92' stroke-width='1.6' /></g><g partID='854441230'><line stroke-linecap='round' stroke='#d6d63a' x1='244.26' y1='36.36' x2='345.06' y2='124.92' stroke-width='3.2' /><line stroke-linecap='round' stroke='#fff800' x1='244.26' y1='36.36' x2='345.06' y2='124.92' stroke-width='1.6' /></g><g partID='854441830'><line stroke-linecap='round' stroke='#999999' x1='431.322' y1='7.68294' x2='575.698' y2='7.68294' stroke-width='3.2' /><line stroke-linecap='round' stroke='#ffffff' x1='431.322' y1='7.68294' x2='575.698' y2='7.68294' stroke-width='1.6' /></g><g partID='854441760'><line stroke-linecap='round' stroke='#999999' x1='575.698' y1='7.68294' x2='546.724' y2='108.353' stroke-width='3.2' /><line stroke-linecap='round' stroke='#ffffff' x1='575.698' y1='7.68294' x2='546.724' y2='108.353' stroke-width='1.6' /></g><g partID='854441690'><line stroke-linecap='round' stroke='#999999' x1='546.724' y1='108.353' x2='366.66' y2='124.92' stroke-width='3.2' /><line stroke-linecap='round' stroke='#ffffff' x1='546.724' y1='108.353' x2='366.66' y2='124.92' stroke-width='1.6' /></g><g partID='854441370'><line stroke-linecap='round' stroke='#999999' x1='431.46' y1='29.16' x2='431.322' y2='7.68294' stroke-width='3.2' /><line stroke-linecap='round' stroke='#ffffff' x1='431.46' y1='29.16' x2='431.322' y2='7.68294' stroke-width='1.6' /></g><g partID='854441510'><line stroke-linecap='round' stroke='#1b5bb3' x1='452.929' y1='72.5045' x2='359.46' y2='124.92' stroke-width='3.2' /><line stroke-linecap='round' stroke='#418dd9' x1='452.929' y1='72.5045' x2='359.46' y2='124.92' stroke-width='1.6' /></g><g partID='854441440'><line stroke-linecap='round' stroke='#1b5bb3' x1='453.06' y1='57.96' x2='452.929' y2='72.5045' stroke-width='3.2' /><line stroke-linecap='round' stroke='#418dd9' x1='453.06' y1='57.96' x2='452.929' y2='72.5045' stroke-width='1.6' /></g><g partID='854442360'><line stroke-linecap='round' stroke='#8c0000' x1='337.86' y1='124.92' x2='150.66' y2='36.36' stroke-width='3.2' /><line stroke-linecap='round' stroke='#cc1414' x1='337.86' y1='124.92' x2='150.66' y2='36.36' stroke-width='1.6' /></g><g partID='854442540'><line stroke-linecap='round' stroke='#000000' x1='330.66' y1='124.92' x2='150.66' y2='73.08' stroke-width='3.2' /><line stroke-linecap='round' stroke='#404040' x1='330.66' y1='124.92' x2='150.66' y2='73.08' stroke-width='1.6' /></g></svg>